<svg width="313" height="170" viewBox="0 0 313 170" fill="none" xmlns="http://www.w3.org/2000/svg">
<g clip-path="url(#clip0)">
<path d="M157.504 170C242.377 170 311.18 165.451 311.18 159.839C311.18 154.226 242.377 149.677 157.504 149.677C72.6318 149.677 3.82906 154.226 3.82906 159.839C3.82906 165.451 72.6318 170 157.504 170Z" fill="#F2F2F2"/>
<path d="M151.614 48.5967C126.576 48.5967 108.6 64.6412 108.6 102.078C108.6 144.507 126.576 155.738 151.614 155.738C176.652 155.738 195.7 143.437 195.7 102.078C195.7 57.8668 176.652 48.5967 151.614 48.5967ZM151.779 141.655C134.437 141.655 125.377 131.493 125.377 102.106C125.377 76.1759 134.808 62.5019 152.15 62.5019C169.492 62.5019 178.923 71.4838 178.923 102.106C178.923 130.752 169.121 141.655 151.779 141.655Z" fill="#2F2E41"/>
<path d="M93.6068 126.145H83.2547V95.6969C83.2547 94.0797 82.6115 92.5287 81.4666 91.3852C80.3217 90.2416 78.7689 89.5992 77.1497 89.5992H74.724C73.9223 89.5992 73.1284 89.7569 72.3877 90.0633C71.647 90.3698 70.974 90.8189 70.4071 91.3852C69.8402 91.9514 69.3905 92.6236 69.0837 93.3634C68.7769 94.1032 68.619 94.8961 68.619 95.6969V126.145H39.4192C38.8185 126.145 38.228 125.99 37.705 125.695C37.182 125.4 36.7442 124.975 36.4341 124.461C36.1241 123.947 35.9522 123.362 35.9353 122.762C35.9184 122.162 36.057 121.568 36.3376 121.038L67.2424 62.6144C67.6277 61.8861 67.8612 61.0872 67.9289 60.2662C67.9966 59.4452 67.897 58.619 67.6361 57.8374C67.3753 57.0559 66.9586 56.3353 66.4112 55.7191C65.8639 55.1028 65.1971 54.6037 64.4513 54.252L62.627 53.3915C61.2104 52.7233 59.5908 52.6247 58.1034 53.1159C56.616 53.6072 55.3746 54.6507 54.636 56.0307L16.9437 126.458C16.3018 127.657 15.966 128.996 15.966 130.356C15.966 131.441 16.1801 132.517 16.5962 133.52C17.0122 134.523 17.622 135.434 18.3907 136.202C19.1594 136.97 20.072 137.579 21.0764 137.995C22.0807 138.41 23.1572 138.624 24.2443 138.624H68.619V157.877C68.619 158.837 68.8083 159.788 69.176 160.674C69.5438 161.561 70.0828 162.367 70.7623 163.046C71.4419 163.724 72.2486 164.263 73.1364 164.63C74.0243 164.998 74.9758 165.187 75.9368 165.187H75.9368C76.8978 165.187 77.8494 164.998 78.7373 164.63C79.6251 164.263 80.4318 163.724 81.1114 163.046C81.7909 162.367 82.3299 161.561 82.6977 160.674C83.0654 159.788 83.2547 158.837 83.2547 157.877V138.624H93.6068C95.2636 138.624 96.8526 137.967 98.0241 136.796C99.1956 135.626 99.8538 134.039 99.8538 132.384C99.8538 130.73 99.1956 129.143 98.0241 127.972C96.8526 126.802 95.2636 126.145 93.6068 126.145Z" fill="#2D8EFF"/>
<path d="M285.299 126.145H274.947V95.6969C274.947 94.0797 274.304 92.5287 273.159 91.3852C272.014 90.2416 270.461 89.5992 268.842 89.5992H266.417C265.615 89.5992 264.821 89.7569 264.08 90.0633C263.34 90.3698 262.667 90.8189 262.1 91.3852C261.533 91.9514 261.083 92.6236 260.776 93.3634C260.469 94.1032 260.312 94.8961 260.312 95.6969V126.145H231.112C230.511 126.145 229.921 125.99 229.397 125.695C228.874 125.4 228.437 124.975 228.127 124.461C227.817 123.947 227.645 123.362 227.628 122.762C227.611 122.162 227.75 121.568 228.03 121.038L258.935 62.6145C259.32 61.8861 259.554 61.0872 259.621 60.2662C259.689 59.4452 259.589 58.619 259.329 57.8374C259.068 57.0559 258.651 56.3353 258.104 55.7191C257.556 55.1028 256.89 54.6037 256.144 54.252L254.319 53.3915C252.903 52.7233 251.283 52.6247 249.796 53.1159C248.309 53.6072 247.067 54.6507 246.329 56.0307L208.636 126.458C207.994 127.657 207.659 128.996 207.659 130.356C207.659 132.548 208.531 134.652 210.083 136.202C211.636 137.753 213.741 138.624 215.937 138.624H260.312V157.877C260.312 159.816 261.083 161.675 262.455 163.046C263.827 164.416 265.689 165.187 267.629 165.187C269.57 165.187 271.432 164.416 272.804 163.046C274.176 161.675 274.947 159.816 274.947 157.877V138.624H285.299C286.956 138.624 288.545 137.967 289.717 136.796C290.888 135.626 291.546 134.039 291.546 132.384C291.546 130.73 290.888 129.143 289.717 127.972C288.545 126.802 286.956 126.145 285.299 126.145Z" fill="#2D8EFF"/>
<path d="M96.4626 122.58H86.1105V92.1315C86.1105 91.3307 85.9526 90.5378 85.6458 89.798C85.339 89.0582 84.8893 88.386 84.3224 87.8197C83.7555 87.2535 83.0825 86.8043 82.3418 86.4979C81.6011 86.1915 80.8072 86.0337 80.0055 86.0337H77.5798C75.9606 86.0337 74.4078 86.6762 73.2629 87.8197C72.118 88.9633 71.4747 90.5143 71.4747 92.1315V122.58H42.275C41.6743 122.58 41.0838 122.424 40.5607 122.129C40.0377 121.834 39.5999 121.409 39.2899 120.895C38.9798 120.381 38.808 119.796 38.7911 119.196C38.7742 118.597 38.9128 118.003 39.1934 117.472L70.0981 59.049C70.4834 58.3206 70.717 57.5218 70.7847 56.7008C70.8523 55.8798 70.7527 55.0535 70.4919 54.272C70.2311 53.4905 69.8144 52.7699 69.267 52.1536C68.7196 51.5374 68.0529 51.0383 67.3071 50.6865L65.4827 49.8261C64.0661 49.1579 62.4466 49.0592 60.9592 49.5505C59.4718 50.0417 58.2304 51.0853 57.4918 52.4653L19.7994 122.892C19.1576 124.091 18.8218 125.43 18.8218 126.79V126.79C18.8218 128.983 19.6939 131.086 21.2464 132.637C22.7989 134.187 24.9045 135.059 27.1001 135.059H71.4747V154.312C71.4747 155.272 71.664 156.222 72.0318 157.109C72.3995 157.996 72.9386 158.802 73.6181 159.48C74.2976 160.159 75.1043 160.697 75.9922 161.065C76.88 161.432 77.8316 161.621 78.7926 161.621H78.7926C80.7334 161.621 82.5948 160.851 83.9671 159.48C85.3395 158.11 86.1105 156.25 86.1105 154.312V135.059H96.4626C97.283 135.059 98.0953 134.897 98.8532 134.584C99.6111 134.27 100.3 133.81 100.88 133.231C101.46 132.652 101.92 131.964 102.234 131.207C102.548 130.45 102.71 129.638 102.71 128.819V128.819C102.71 128 102.548 127.188 102.234 126.431C101.92 125.674 101.46 124.986 100.88 124.407C100.3 123.828 99.6111 123.368 98.8532 123.054C98.0953 122.741 97.283 122.58 96.4626 122.58V122.58Z" stroke="#3F3D56" stroke-miterlimit="10"/>
<path d="M290.654 122.58H280.302V92.1315C280.302 90.5143 279.659 88.9633 278.514 87.8197C277.369 86.6762 275.816 86.0337 274.197 86.0337H271.771C270.969 86.0337 270.175 86.1915 269.435 86.4979C268.694 86.8043 268.021 87.2535 267.454 87.8197C266.887 88.386 266.438 89.0582 266.131 89.798C265.824 90.5378 265.666 91.3307 265.666 92.1315V122.58H236.466C235.866 122.58 235.275 122.424 234.752 122.129C234.229 121.834 233.791 121.409 233.481 120.895C233.171 120.381 232.999 119.796 232.982 119.196C232.966 118.597 233.104 118.003 233.385 117.472L264.289 59.049C264.675 58.3206 264.908 57.5218 264.976 56.7008C265.044 55.8798 264.944 55.0535 264.683 54.272C264.422 53.4905 264.006 52.7699 263.458 52.1536C262.911 51.5374 262.244 51.0383 261.498 50.6865L259.674 49.8261C258.257 49.1579 256.638 49.0592 255.15 49.5505C253.663 50.0417 252.422 51.0853 251.683 52.4653L213.991 122.892C213.349 124.091 213.013 125.43 213.013 126.79C213.013 128.983 213.885 131.086 215.438 132.637C216.99 134.187 219.096 135.059 221.291 135.059H265.666V154.312C265.666 156.25 266.437 158.11 267.809 159.48C269.182 160.851 271.043 161.621 272.984 161.621V161.621C274.925 161.621 276.786 160.851 278.158 159.48C279.531 158.11 280.302 156.25 280.302 154.312V135.059H290.654C291.474 135.059 292.287 134.897 293.044 134.584C293.802 134.27 294.491 133.81 295.071 133.231C295.651 132.652 296.111 131.964 296.425 131.207C296.739 130.45 296.901 129.638 296.901 128.819V128.819C296.901 127.164 296.243 125.577 295.071 124.407C293.9 123.237 292.311 122.58 290.654 122.58V122.58Z" stroke="#3F3D56" stroke-miterlimit="10"/>
<path d="M157.326 45.3877C132.288 45.3877 114.311 61.4322 114.311 98.8693C114.311 141.298 132.288 152.529 157.326 152.529C182.364 152.529 201.412 140.228 201.412 98.8693C201.412 54.6578 182.364 45.3877 157.326 45.3877ZM157.49 138.446C140.149 138.446 131.089 128.284 131.089 98.8967C131.089 72.9669 140.52 59.2929 157.861 59.2929C175.203 59.2929 184.634 68.2748 184.634 98.8967C184.634 127.543 174.832 138.446 157.49 138.446V138.446Z" stroke="#3F3D56" stroke-miterlimit="10"/>
<path d="M137.256 9.06439C139.332 9.06439 141.015 7.38367 141.015 5.31039C141.015 3.23712 139.332 1.5564 137.256 1.5564C135.181 1.5564 133.498 3.23712 133.498 5.31039C133.498 7.38367 135.181 9.06439 137.256 9.06439Z" fill="#2F2E41"/>
<path d="M146.423 27.2851C152.246 27.2851 156.965 21.1771 156.965 13.6426C156.965 6.10798 152.246 0 146.423 0C140.601 0 135.881 6.10798 135.881 13.6426C135.881 21.1771 140.601 27.2851 146.423 27.2851Z" fill="#2F2E41"/>
<path opacity="0.1" d="M146.423 23.165C141.142 23.165 136.768 18.1396 136.001 11.5825C135.921 12.2663 135.881 12.9542 135.881 13.6426C135.881 21.1772 140.601 27.2852 146.423 27.2852C152.246 27.2852 156.965 21.1772 156.965 13.6426C156.966 12.9542 156.926 12.2663 156.846 11.5825C156.078 18.1396 151.704 23.165 146.423 23.165Z" fill="black"/>
<path d="M167.875 53.5954C167.649 54.5246 166.673 55.2688 165.592 55.7888C163.319 56.8819 160.515 57.2081 157.796 57.3176C157.102 57.3597 156.406 57.3469 155.714 57.2792C154.374 57.1497 153.117 56.5724 152.145 55.6406C152.076 55.5955 152.019 55.5335 151.981 55.4606C151.942 55.3876 151.922 55.306 151.923 55.2233C151.924 55.1407 151.947 55.0597 151.988 54.988C152.029 54.9162 152.087 54.8561 152.158 54.8131C153.606 53.2247 156.022 52.2507 158.456 51.5494C160.301 51.0177 163.519 49.6403 165.532 49.8262C167.481 50.0063 168.161 52.4221 167.875 53.5954Z" fill="#3F3D56"/>
<path opacity="0.1" d="M167.875 53.5954C167.649 54.5246 166.673 55.2688 165.592 55.7888C163.319 56.8819 160.515 57.2081 157.796 57.3176C157.102 57.3597 156.406 57.3469 155.714 57.2792C154.374 57.1497 153.117 56.5724 152.145 55.6406C152.076 55.5955 152.019 55.5335 151.981 55.4606C151.942 55.3876 151.922 55.306 151.923 55.2233C151.924 55.1407 151.947 55.0597 151.988 54.988C152.029 54.9162 152.087 54.8561 152.158 54.8131C153.606 53.2247 156.022 52.2507 158.456 51.5494C160.301 51.0177 163.519 49.6403 165.532 49.8262C167.481 50.0063 168.161 52.4221 167.875 53.5954Z" fill="black"/>
<path d="M138.976 46.6505C138.282 48.0086 138.157 49.5863 138.627 51.0369C139.105 52.4766 140 53.7421 141.199 54.6733C144.14 57.0278 148.187 57.3518 151.956 57.3191C155.259 57.2904 158.558 57.0646 161.834 56.6429C162.932 56.5457 164.01 56.2955 165.039 55.8996C166.269 55.3681 167.35 54.393 167.788 53.1278C168.226 51.8626 167.915 50.3133 166.875 49.469C165.961 48.727 164.701 48.625 163.525 48.5544L156.799 48.1507C157.464 47.479 158.348 47.0991 159.158 46.6108C160.231 45.9629 160.945 44.8752 161.725 43.8946C162.928 42.4588 164.237 41.1149 165.64 39.8741C165.859 41.1283 166.653 42.1583 167.588 43.0237C168.523 43.8891 169.601 44.5858 170.573 45.4097C172.926 47.4054 174.621 50.114 177.096 51.9569C178.799 51.5101 180.391 50.7163 181.772 49.6255L180.81 47.8851C180.729 47.7059 180.605 47.5504 180.447 47.4332C180.175 47.2659 179.824 47.3521 179.507 47.3048C178.662 47.1782 178.293 46.2037 177.962 45.4171C177.051 43.2575 175.308 41.582 173.82 39.7709C172.721 38.4341 171.746 37.0001 170.908 35.4869C170.407 34.5844 169.95 33.6447 169.271 32.8671C168.592 32.0896 167.641 31.4783 166.609 31.4761C165.696 31.4742 164.855 31.9369 164.07 32.4023C161.68 33.82 159.381 35.3845 157.186 37.0868C156.037 37.9777 154.895 38.9189 153.547 39.4652C152.98 39.6952 152.382 39.8524 151.838 40.1322C150.884 40.6224 150.16 41.4516 149.381 42.1878C146.603 44.8133 142.799 46.5144 138.976 46.6505Z" fill="#3F3D56"/>
<path d="M153.04 27.9625C153.009 28.7651 152.838 29.5561 152.535 30.3001C152.381 30.6711 152.153 31.0066 151.864 31.2856C151.575 31.5646 151.231 31.7811 150.855 31.9216C150.32 32.0647 149.759 32.0829 149.217 31.9747C148.743 31.9253 148.287 31.7701 147.882 31.5206C147.251 31.0875 146.937 30.3147 146.822 29.5584C146.708 28.803 146.759 28.0312 146.686 27.2703C146.614 26.6558 146.497 26.0473 146.335 25.4501C146.286 25.2514 146.235 25.0536 146.186 24.8559C146.137 24.6581 146.09 24.4603 146.046 24.2626C146.005 24.0767 145.968 23.8899 145.936 23.7022C145.909 23.5438 145.885 23.3845 145.868 23.2243C145.852 22.7492 145.773 22.2785 145.632 21.8243C145.501 21.5298 145.336 21.2511 145.141 20.9938C145.057 20.8748 144.977 20.7558 144.903 20.6322C144.688 20.3109 144.588 19.9267 144.619 19.5417C144.628 19.4822 144.643 19.4236 144.662 19.3668C144.67 19.3448 144.678 19.3229 144.687 19.3018C144.77 19.2794 144.845 19.2373 144.908 19.1791C144.97 19.1208 145.018 19.0482 145.046 18.9676C145.077 18.7944 145.062 18.6159 145.003 18.4503C144.934 18.2188 144.84 17.9956 144.723 17.7846C144.646 17.6454 144.385 17.3946 144.383 17.2352C144.379 16.9148 145.006 16.6566 145.26 16.5302C146.035 16.1426 146.899 15.9675 147.765 16.023C148.319 16.0605 148.92 16.2308 149.227 16.695C149.502 17.1135 149.465 17.6555 149.582 18.1417C149.595 18.2124 149.625 18.2788 149.669 18.3349C149.729 18.3893 149.805 18.4239 149.885 18.4338C150.021 18.4608 150.16 18.4663 150.297 18.4503H150.298C150.335 18.4474 150.371 18.4422 150.406 18.4347C150.621 18.3952 150.823 18.3079 150.999 18.1792C151.112 18.149 151.227 18.1243 151.342 18.1051C151.347 18.1046 151.352 18.1037 151.356 18.1023C151.815 19.5499 151.875 21.1019 152.251 22.576C152.437 23.3094 152.704 24.0336 152.741 24.7881C152.744 24.8211 152.745 24.8549 152.746 24.8888C152.751 25.1314 152.732 25.3759 152.742 25.6176C152.746 25.7265 152.758 25.8349 152.779 25.9418C152.82 26.1137 152.871 26.283 152.932 26.449L152.935 26.4572C152.952 26.5104 152.969 26.5644 152.982 26.6184C152.992 26.6578 153.002 26.6962 153.009 26.7356L153.01 26.7383C153.078 27.1429 153.088 27.5551 153.04 27.9625Z" fill="#FBBEBE"/>
<path d="M146.607 18.4953C149.594 18.4953 152.015 16.0767 152.015 13.0933C152.015 10.1098 149.594 7.69116 146.607 7.69116C143.62 7.69116 141.198 10.1098 141.198 13.0933C141.198 16.0767 143.62 18.4953 146.607 18.4953Z" fill="#FBBEBE"/>
<path d="M180.944 42.5263C180.788 41.0524 180.263 39.6414 179.419 38.4225C179.559 39.2557 179.7 40.0886 179.841 40.9212C179.666 40.9718 179.48 40.9703 179.305 40.9167C179.131 40.8632 178.976 40.7601 178.86 40.62C178.632 40.3359 178.458 40.013 178.346 39.6668C177.731 38.1432 176.928 36.7027 175.954 35.379C172.511 35.0924 169.107 33.6668 166.079 32.005C163.05 30.3441 160.216 28.3526 157.228 26.6212C156.71 26.3084 156.17 26.033 155.612 25.7972C154.677 25.4227 153.628 25.2286 152.741 24.7882C152.682 24.7589 152.622 24.7277 152.563 24.6957C152.363 24.5869 152.174 24.4597 151.997 24.3157C151.901 24.2383 151.811 24.1551 151.726 24.0667C151.283 23.5527 150.933 22.9668 150.689 22.3343C150.213 21.2832 150.043 20.0151 149.569 18.964C149.787 18.7603 150.032 18.5874 150.297 18.4503H150.298C150.337 18.4302 150.375 18.411 150.415 18.3926C150.603 18.3043 150.798 18.2329 150.999 18.1793C151.112 18.1491 151.227 18.1244 151.342 18.1051C151.347 18.1047 151.352 18.1037 151.356 18.1024C151.892 18.0152 152.441 18.0586 152.956 18.2287C153.709 18.4833 154.345 18.9915 154.978 19.4721C156.007 20.1963 156.994 20.9782 157.934 21.8143C158.457 22.3142 158.934 22.8635 159.496 23.3177C159.962 23.6777 160.455 24.0035 160.969 24.2928C164.009 26.1021 167.05 27.911 170.092 29.7196C171.121 30.3322 172.151 30.9447 173.158 31.593C174.687 32.5782 176.161 33.6458 177.634 34.7124C178.502 35.3405 179.37 35.969 180.238 36.5977C180.522 36.779 180.772 37.0097 180.976 37.2789C181.155 37.5845 181.267 37.9252 181.303 38.2778C181.521 39.7024 181.398 41.1582 180.944 42.5263Z" fill="#FBBEBE"/>
<path d="M154.381 32.0252C154.016 33.6596 152.363 34.6475 151.498 36.0832C150.424 37.865 150.862 39.9361 151.265 41.977C150.528 42.6115 149.791 43.246 149.053 43.8805C148.646 44.2294 148.239 44.58 147.801 44.8886C147.162 45.3162 146.495 45.6992 145.803 46.0349C145.15 46.3701 144.497 46.7055 143.845 47.0412C143.238 47.382 142.595 47.654 141.928 47.8524C140.642 48.182 139.276 47.9513 138.004 47.5695C137.853 47.5302 137.709 47.4714 137.574 47.3946C137.495 47.3473 137.426 47.2848 137.371 47.2106C137.246 46.9859 137.2 46.7255 137.242 46.4717C137.371 44.3328 137.894 42.2388 138.416 40.1604C138.695 38.9135 139.07 37.6899 139.537 36.5007C139.996 35.4817 140.523 34.4949 141.115 33.547C141.768 32.3543 142.542 31.2317 143.425 30.1967C143.855 29.7984 144.216 29.3326 144.496 28.8178C144.821 28.0762 144.695 27.2256 144.761 26.418C144.812 25.8113 144.973 25.2189 145.237 24.6701V24.6692C145.378 24.3736 145.549 24.0927 145.745 23.8305C145.834 24.0374 145.923 24.2441 146.012 24.4504C146.07 24.5859 146.129 24.7211 146.186 24.856C146.261 25.03 146.336 25.2033 146.41 25.3761C146.623 25.8723 146.837 26.3683 147.05 26.8639C147.28 27.4882 147.608 28.072 148.021 28.5935C148.21 28.8606 148.465 29.0741 148.762 29.2132C149.058 29.3523 149.385 29.4123 149.712 29.3873C150.038 29.3623 150.353 29.2532 150.624 29.0706C150.896 28.888 151.116 28.6381 151.262 28.3454C151.57 27.799 151.793 27.209 151.924 26.5957C152.105 25.8488 152.13 25.0727 151.997 24.3158C151.776 22.8582 151.155 21.3694 150.704 20.0152C150.521 19.5637 150.415 19.0845 150.39 18.5978C150.391 18.5431 150.396 18.4886 150.406 18.4348C150.409 18.4211 150.412 18.4065 150.415 18.3927C150.603 18.3043 150.798 18.233 150.999 18.1794C151.112 18.1492 151.227 18.1245 151.342 18.1052C151.739 20.2514 152.137 22.3976 152.535 24.5438C152.544 24.5941 152.554 24.6445 152.563 24.6958C152.62 25.0034 152.678 25.3111 152.742 25.6178C152.8 25.8961 152.862 26.1736 152.932 26.4492L152.935 26.4574C152.959 26.5508 152.983 26.6433 153.009 26.7358L153.01 26.7385C153.08 26.9912 153.159 27.2421 153.248 27.4893C153.787 28.979 154.727 30.4788 154.381 32.0252Z" fill="#2D8EFF"/>
<path d="M176.331 54.9933C176.314 55.3081 176.375 55.6223 176.509 55.9079C176.847 56.5258 177.659 56.6663 178.362 56.7241C182.468 57.0612 186.598 56.9355 190.676 56.3494C190.897 56.3343 191.111 56.2677 191.302 56.1551C191.882 55.7492 191.525 54.7598 190.892 54.4431C190.259 54.1264 189.507 54.2027 188.813 54.0656C188.123 53.8921 187.466 53.6075 186.867 53.2228C185.459 52.4146 184.071 51.5719 182.703 50.6948C181.889 50.1726 180.929 49.6153 180.012 49.9249C177.528 50.7641 176.315 52.3173 176.331 54.9933Z" fill="#3F3D56"/>
<path d="M146.067 24.1484V24.1493C146.06 24.1877 146.054 24.2253 146.046 24.2628C146.036 24.3251 146.024 24.3883 146.012 24.4505C145.898 25.0319 145.759 25.6106 145.598 26.1856C145.158 27.7742 144.569 29.3371 143.984 30.8772C142.415 35.0065 140.845 39.1362 139.275 43.2662C138.879 44.3064 138.484 45.3474 138.034 46.3665C137.883 46.7062 137.728 47.0486 137.574 47.3947C137.023 48.6335 136.493 49.9126 136.317 51.2311C136.153 52.0989 136.134 52.9878 136.261 53.8617C136.437 54.726 136.962 55.5702 137.784 55.8897C138.186 56.0463 138.761 56.256 138.651 56.6726C138.591 56.9015 138.331 57.0132 138.097 57.0516C137.788 57.1008 137.473 57.0815 137.172 56.9951C136.872 56.9087 136.594 56.7573 136.359 56.5517C135.92 56.1626 135.583 55.5574 134.999 55.4924C134.594 55.4484 134.222 55.6901 133.852 55.8595C132.341 56.549 130.581 56.0665 128.994 55.5766C129.119 54.9348 129.764 54.5118 130.405 54.3836C131.046 54.2545 131.709 54.346 132.362 54.3286C132.571 54.3398 132.779 54.2864 132.957 54.1757C133.117 54.0295 133.228 53.8387 133.278 53.6282C133.699 52.3822 134.012 51.1023 134.214 49.8028C134.425 48.4449 134.513 47.066 134.813 45.7247C135.047 44.6781 135.408 43.6646 135.718 42.6372C136.317 40.522 136.809 38.378 137.192 36.2133C137.386 35.314 137.524 34.4037 137.607 33.4876C137.66 32.7276 137.635 31.964 137.708 31.2068C137.831 30.2216 138.037 29.2486 138.323 28.2979C138.604 27.2605 138.884 26.2237 139.164 25.1876C139.579 23.6539 140.025 22.0608 141.077 20.8687C141.443 20.449 141.891 20.1087 142.393 19.869C142.896 19.6293 143.442 19.4952 143.999 19.4751C144.207 19.4748 144.415 19.4973 144.619 19.5419C144.653 19.5502 144.687 19.5584 144.721 19.5676C144.943 19.6256 145.156 19.7137 145.355 19.8294C145.679 19.6234 145.844 19.6958 146.059 20.0135C146.248 20.3497 146.337 20.7327 146.316 21.1177C146.334 22.1337 146.251 23.149 146.067 24.1484Z" fill="#FBBEBE"/>
<path d="M146.423 25.3624L146.41 25.3761L146.335 25.4503L145.598 26.1855L145.237 24.6702L143.999 19.475C144.207 19.4747 144.415 19.4971 144.619 19.5418C144.628 19.4823 144.643 19.4238 144.662 19.3669L144.721 19.5675L145.141 20.994L145.936 23.7024L146.067 24.1483V24.1492L146.423 25.3624Z" fill="#2D8EFF"/>
<path d="M151.1 8.78842C151.1 9.26947 151.004 9.74569 150.819 10.1898C150.634 10.634 150.363 11.0374 150.022 11.3769C149.899 11.5005 149.766 11.6149 149.626 11.7192C148.993 12.1955 148.223 12.4533 147.431 12.4537H143.033C142.061 12.4522 141.13 12.0656 140.443 11.3787C139.756 10.6918 139.371 9.76085 139.371 8.79021C139.371 7.81957 139.756 6.8886 140.443 6.20172C141.13 5.51484 142.061 5.12821 143.033 5.12671H147.431C148.403 5.12924 149.334 5.51572 150.021 6.20178C150.709 6.88784 151.097 7.81773 151.1 8.78842Z" fill="#2F2E41"/>
<path d="M155.224 9.06439C157.299 9.06439 158.982 7.38367 158.982 5.31039C158.982 3.23712 157.299 1.5564 155.224 1.5564C153.148 1.5564 151.465 3.23712 151.465 5.31039C151.465 7.38367 153.148 9.06439 155.224 9.06439Z" fill="#2F2E41"/>
<path opacity="0.1" d="M155.132 1.55664C155.086 1.55664 155.04 1.55847 154.995 1.56011C155.967 1.59542 156.887 2.00602 157.563 2.70552C158.238 3.40502 158.615 4.33889 158.615 5.31064C158.615 6.28239 158.238 7.21625 157.563 7.91575C156.887 8.61525 155.967 9.02585 154.995 9.06116C155.04 9.0628 155.086 9.06463 155.132 9.06463C156.129 9.06463 157.085 8.66912 157.79 7.96511C158.495 7.2611 158.89 6.30626 158.89 5.31064C158.89 4.31502 158.495 3.36017 157.79 2.65616C157.085 1.95215 156.129 1.55664 155.132 1.55664Z" fill="black"/>
<path opacity="0.1" d="M137.256 1.55664C137.302 1.55664 137.348 1.55847 137.394 1.56011C136.422 1.59542 135.501 2.00602 134.826 2.70552C134.15 3.40502 133.773 4.33889 133.773 5.31064C133.773 6.28239 134.15 7.21625 134.826 7.91575C135.501 8.61525 136.422 9.02585 137.394 9.06116C137.348 9.0628 137.302 9.06463 137.256 9.06463C136.26 9.06375 135.305 8.66786 134.601 7.96394C133.897 7.26002 133.501 6.30569 133.501 5.31064C133.501 4.31559 133.897 3.36124 134.601 2.65733C135.305 1.95341 136.26 1.55752 137.256 1.55664Z" fill="black"/>
<path opacity="0.1" d="M149.626 11.7192C148.993 12.1955 148.223 12.4533 147.431 12.4537H143.033C142.241 12.4533 141.47 12.1955 140.837 11.7192H149.626Z" fill="black"/>
<path d="M178.026 38.9205C178.026 38.9205 178.974 41.6475 179.841 40.9214L179.15 37.3569L178.026 38.9205Z" fill="#FBBEBE"/>
<path d="M293.327 122.081C294.21 122.401 295.155 122.513 296.088 122.406C297.02 122.3 297.916 121.978 298.703 121.467C299.491 120.956 300.148 120.269 300.624 119.461C301.101 118.652 301.382 117.744 301.447 116.809C301.512 115.873 301.359 114.935 300.999 114.069C300.639 113.203 300.083 112.432 299.374 111.817C298.665 111.202 297.823 110.76 296.914 110.525C296.004 110.291 295.053 110.271 294.135 110.466L294.286 113.583L292.81 110.912C291.361 111.592 290.241 112.819 289.697 114.323C289.504 114.85 289.387 115.402 289.349 115.961C289.255 117.275 289.593 118.583 290.311 119.687C291.029 120.791 292.088 121.632 293.327 122.081Z" fill="#57B894"/>
<path d="M300.633 158.233C300.112 155.582 302.37 153.232 304.601 151.705C306.832 150.177 309.439 148.676 310.2 146.084C311.294 142.358 308.035 138.946 305.499 136.004C303.617 133.82 302.001 131.422 300.685 128.858C300.158 127.83 299.673 126.756 299.534 125.609C299.334 123.957 299.865 122.314 300.4 120.739C302.183 115.491 304.089 110.287 306.118 105.128" stroke="#3F3D56" stroke-miterlimit="10"/>
<path d="M293.577 121.278C294.459 121.599 295.404 121.71 296.337 121.604C297.27 121.497 298.166 121.176 298.953 120.664C299.74 120.153 300.398 119.466 300.874 118.658C301.35 117.85 301.632 116.942 301.697 116.006C301.762 115.071 301.609 114.133 301.249 113.266C300.889 112.4 300.333 111.629 299.624 111.014C298.915 110.399 298.072 109.957 297.163 109.723C296.254 109.488 295.303 109.468 294.384 109.664L294.536 112.781L293.06 110.11C291.61 110.79 290.491 112.017 289.947 113.521C289.754 114.047 289.637 114.599 289.598 115.159C289.505 116.472 289.843 117.78 290.561 118.884C291.279 119.989 292.338 120.829 293.577 121.278V121.278Z" stroke="#3F3D56" stroke-miterlimit="10"/>
<path d="M299.892 104.051C300.238 103.097 300.819 102.245 301.582 101.574C302.345 100.902 303.264 100.434 304.256 100.211L304.755 103.174L305.681 100.062C306.966 100.081 308.212 100.507 309.238 101.28C310.265 102.052 311.019 103.13 311.392 104.359C311.765 105.587 311.738 106.902 311.314 108.114C310.89 109.326 310.092 110.372 309.034 111.101C307.976 111.83 306.713 112.204 305.429 112.17C304.144 112.135 302.903 111.694 301.886 110.91C300.869 110.125 300.127 109.038 299.769 107.805C299.41 106.573 299.453 105.258 299.892 104.051H299.892Z" fill="#57B894"/>
<path d="M300.225 102.981C300.571 102.027 301.152 101.175 301.915 100.504C302.678 99.8324 303.597 99.3638 304.589 99.1409L305.088 102.104L306.014 98.9919C307.299 99.011 308.544 99.4374 309.571 100.21C310.598 100.982 311.352 102.06 311.725 103.289C312.098 104.517 312.071 105.832 311.647 107.044C311.223 108.256 310.424 109.302 309.367 110.031C308.309 110.76 307.046 111.134 305.761 111.1C304.477 111.065 303.236 110.624 302.219 109.84C301.201 109.055 300.46 107.968 300.102 106.735C299.743 105.503 299.786 104.188 300.225 102.981H300.225Z" stroke="#3F3D56" stroke-miterlimit="10"/>
<path d="M304.435 136.064C305.834 136.571 307.372 136.546 308.754 135.993C310.136 135.441 311.267 134.4 311.93 133.069C312.593 131.737 312.742 130.209 312.35 128.774C311.957 127.34 311.05 126.1 309.801 125.291L309.089 127.682L308.585 124.684C308.58 124.682 308.575 124.68 308.57 124.678C307.821 124.407 307.026 124.285 306.231 124.32C305.435 124.355 304.654 124.547 303.932 124.884C303.211 125.22 302.563 125.696 302.025 126.283C301.487 126.87 301.071 127.557 300.799 128.305C300.528 129.053 300.406 129.847 300.442 130.641C300.478 131.436 300.67 132.216 301.007 132.937C301.345 133.657 301.821 134.304 302.41 134.841C302.998 135.377 303.686 135.793 304.435 136.064H304.435Z" fill="#57B894"/>
<path d="M304.723 134.98C306.123 135.487 307.66 135.462 309.042 134.91C310.425 134.357 311.555 133.316 312.218 131.985C312.881 130.653 313.031 129.125 312.638 127.69C312.246 126.256 311.338 125.016 310.089 124.207L309.378 126.599L308.874 123.601C308.869 123.598 308.863 123.596 308.858 123.595C308.11 123.323 307.315 123.201 306.519 123.236C305.723 123.272 304.942 123.463 304.221 123.8C303.499 124.137 302.851 124.612 302.313 125.199C301.776 125.786 301.359 126.473 301.088 127.221C300.816 127.969 300.695 128.763 300.73 129.558C300.766 130.352 300.958 131.132 301.296 131.853C301.634 132.573 302.11 133.22 302.698 133.757C303.286 134.294 303.974 134.709 304.723 134.98H304.723Z" stroke="#3F3D56" stroke-miterlimit="10"/>
<path d="M298.122 146.121C298.363 147.489 299.067 148.732 300.117 149.643C301.166 150.553 302.498 151.076 303.887 151.123C305.277 151.169 306.64 150.738 307.748 149.899C308.857 149.061 309.643 147.868 309.975 146.52C310.308 145.171 310.166 143.75 309.573 142.494C308.981 141.237 307.974 140.223 306.721 139.62C305.468 139.018 304.047 138.863 302.694 139.184C301.341 139.504 300.139 140.279 299.291 141.379L301.992 145.44L298.301 143.284C298.015 144.202 297.954 145.175 298.122 146.121Z" fill="#57B894"/>
<path d="M298.372 145.319C298.613 146.686 299.317 147.93 300.366 148.84C301.416 149.751 302.747 150.273 304.137 150.32C305.526 150.367 306.89 149.935 307.998 149.097C309.107 148.259 309.893 147.066 310.225 145.717C310.557 144.369 310.415 142.947 309.823 141.691C309.23 140.435 308.223 139.42 306.971 138.818C305.718 138.215 304.296 138.061 302.943 138.381C301.591 138.701 300.389 139.476 299.541 140.576L302.242 144.637L298.551 142.482C298.265 143.399 298.203 144.372 298.372 145.319V145.319Z" stroke="#3F3D56" stroke-miterlimit="10"/>
<path d="M2.62412 136.833C3.20395 137.044 3.82481 137.117 4.43778 137.047C5.05074 136.977 5.63904 136.766 6.15632 136.43C6.6736 136.094 7.10571 135.643 7.41859 135.112C7.73148 134.581 7.91658 133.984 7.95932 133.37C8.00206 132.755 7.90126 132.139 7.66487 131.569C7.42847 131 7.06295 130.494 6.59711 130.09C6.13127 129.686 5.57784 129.395 4.98045 129.241C4.38306 129.087 3.75803 129.074 3.15463 129.202L3.25434 131.25L2.28426 129.495C1.33218 129.942 0.596658 130.748 0.239328 131.736C0.112425 132.083 0.0352775 132.445 0.0101868 132.813C-0.0510452 133.676 0.171007 134.535 0.642694 135.261C1.11438 135.986 1.80999 136.538 2.62412 136.833Z" fill="#57B894"/>
<path d="M7.42412 160.586C7.08168 158.844 8.56554 157.3 10.0313 156.297C11.497 155.293 13.2096 154.307 13.7097 152.604C14.4284 150.156 12.2875 147.914 10.6212 145.981C9.38494 144.546 8.32329 142.97 7.45845 141.286C7.08246 140.625 6.82637 139.902 6.70197 139.151C6.57058 138.066 6.91959 136.987 7.2712 135.952C8.44252 132.504 9.69486 129.085 11.0282 125.695" stroke="#3F3D56" stroke-miterlimit="10"/>
<path d="M2.78817 136.306C3.368 136.517 3.98886 136.59 4.60182 136.52C5.21478 136.45 5.80308 136.238 6.32036 135.903C6.83764 135.567 7.26975 135.116 7.58263 134.584C7.89551 134.053 8.08062 133.457 8.12335 132.842C8.16609 132.227 8.06529 131.611 7.8289 131.042C7.59251 130.473 7.22699 129.966 6.76115 129.562C6.29531 129.158 5.74188 128.868 5.14449 128.714C4.5471 128.56 3.92207 128.547 3.31868 128.675L3.41839 130.723L2.44831 128.968C1.49622 129.415 0.760701 130.221 0.403371 131.209C0.27647 131.555 0.199324 131.918 0.174231 132.285C0.112995 133.148 0.335046 134.008 0.806734 134.733C1.27842 135.459 1.97404 136.011 2.78817 136.306V136.306Z" stroke="#3F3D56" stroke-miterlimit="10"/>
<path d="M6.93722 124.988C7.16477 124.361 7.54668 123.801 8.04776 123.36C8.54884 122.919 9.15298 122.611 9.8045 122.465L10.1325 124.412L10.7406 122.367C11.5849 122.379 12.4034 122.659 13.0779 123.167C13.7524 123.674 14.248 124.383 14.4932 125.19C14.7383 125.997 14.7203 126.861 14.4418 127.657C14.1633 128.453 13.6386 129.14 12.9436 129.619C12.2485 130.098 11.4191 130.344 10.5749 130.322C9.73084 130.299 8.91574 130.009 8.24735 129.494C7.57896 128.978 7.09186 128.264 6.85638 127.454C6.62089 126.644 6.6492 125.781 6.93722 124.988Z" fill="#57B894"/>
<path d="M7.15597 124.285C7.38351 123.657 7.76542 123.098 8.26651 122.657C8.76759 122.216 9.37172 121.908 10.0232 121.761L10.3512 123.708L10.9593 121.664C11.8037 121.676 12.6222 121.956 13.2967 122.464C13.9712 122.971 14.4668 123.679 14.7119 124.487C14.9571 125.294 14.9391 126.158 14.6605 126.954C14.382 127.75 13.8573 128.437 13.1623 128.916C12.4673 129.395 11.6378 129.641 10.7937 129.619C9.94958 129.596 9.13449 129.306 8.4661 128.791C7.79771 128.275 7.3106 127.561 7.07512 126.751C6.83963 125.941 6.86794 125.077 7.15597 124.285V124.285Z" stroke="#3F3D56" stroke-miterlimit="10"/>
<path d="M9.9219 146.02C10.8414 146.354 11.8516 146.337 12.7598 145.974C13.668 145.611 14.4107 144.927 14.8464 144.053C15.2821 143.178 15.3803 142.174 15.1223 141.231C14.8643 140.289 14.2681 139.474 13.4474 138.942L12.9802 140.514L12.6488 138.544C12.6456 138.542 12.6422 138.541 12.6387 138.54C12.1468 138.361 11.6246 138.281 11.1017 138.304C10.5788 138.327 10.0657 138.453 9.59147 138.674C9.11729 138.896 8.6914 139.208 8.33816 139.594C7.98491 139.98 7.71123 140.431 7.53276 140.922C7.35428 141.414 7.27451 141.936 7.298 142.458C7.32149 142.98 7.44778 143.492 7.66965 143.966C7.89153 144.439 8.20464 144.865 8.59109 145.217C8.97754 145.57 9.42976 145.843 9.9219 146.02Z" fill="#57B894"/>
<path d="M10.1114 145.308C11.031 145.642 12.0411 145.625 12.9493 145.262C13.8575 144.899 14.6002 144.215 15.0359 143.341C15.4716 142.466 15.5699 141.462 15.3119 140.519C15.0539 139.577 14.4577 138.762 13.637 138.23L13.1697 139.802L12.8384 137.832C12.8351 137.83 12.8317 137.829 12.8282 137.828C12.3365 137.65 11.8144 137.57 11.2918 137.594C10.7692 137.617 10.2564 137.743 9.78252 137.964C8.82551 138.411 8.08548 139.22 7.72521 140.211C7.36494 141.203 7.41394 142.298 7.86145 143.254C8.30895 144.209 9.1183 144.949 10.1114 145.308V145.308Z" stroke="#3F3D56" stroke-miterlimit="10"/>
<path d="M5.7747 152.628C5.93281 153.527 6.39545 154.344 7.08503 154.942C7.77462 155.54 8.64921 155.884 9.56213 155.914C10.475 155.945 11.3708 155.661 12.0991 155.111C12.8274 154.56 13.344 153.776 13.5623 152.89C13.7806 152.004 13.6872 151.07 13.2979 150.245C12.9086 149.42 12.247 148.753 11.4241 148.357C10.6012 147.961 9.66693 147.86 8.77811 148.07C7.88928 148.281 7.0999 148.79 6.54235 149.513L8.3172 152.181L5.89208 150.765C5.70405 151.367 5.66379 152.007 5.7747 152.628Z" fill="#57B894"/>
<path d="M5.93875 152.101C6.09686 152.999 6.5595 153.816 7.24909 154.415C7.93867 155.013 8.81326 155.356 9.72618 155.387C10.6391 155.418 11.5348 155.134 12.2632 154.583C12.9915 154.033 13.5081 153.249 13.7264 152.363C13.9446 151.477 13.8513 150.543 13.462 149.717C13.0727 148.892 12.4111 148.226 11.5881 147.83C10.7652 147.434 9.83099 147.332 8.94216 147.543C8.05333 147.753 7.26395 148.262 6.7064 148.985L8.48126 151.653L6.05613 150.237C5.8681 150.84 5.82785 151.479 5.93875 152.101V152.101Z" stroke="#3F3D56" stroke-miterlimit="10"/>
<path d="M140.113 99.258C142.848 99.258 145.065 96.3919 145.065 92.8564C145.065 89.3209 142.848 86.4548 140.113 86.4548C137.378 86.4548 135.16 89.3209 135.16 92.8564C135.16 96.3919 137.378 99.258 140.113 99.258Z" fill="#2F2E41"/>
<path d="M167.061 99.4035C169.796 99.4035 172.013 96.5374 172.013 93.0019C172.013 89.4664 169.796 86.6003 167.061 86.6003C164.325 86.6003 162.108 89.4664 162.108 93.0019C162.108 96.5374 164.325 99.4035 167.061 99.4035Z" fill="#2F2E41"/>
<path d="M163.273 111.916C163.273 114.808 159.23 117.153 154.242 117.153C149.255 117.153 145.211 114.808 145.211 111.916C145.211 109.41 148.244 107.315 152.296 106.803C152.941 106.718 153.591 106.676 154.242 106.678C155.333 106.675 156.42 106.792 157.485 107.027C160.87 107.781 163.273 109.687 163.273 111.916Z" fill="#2F2E41"/>
<path d="M141.278 97.8032C144.013 97.8032 146.231 94.9371 146.231 91.4016C146.231 87.8661 144.013 85 141.278 85C138.543 85 136.326 87.8661 136.326 91.4016C136.326 94.9371 138.543 97.8032 141.278 97.8032Z" stroke="#3F3D56" stroke-miterlimit="10"/>
<path d="M168.226 97.9486C170.961 97.9486 173.178 95.0826 173.178 91.5471C173.178 88.0116 170.961 85.1455 168.226 85.1455C165.491 85.1455 163.273 88.0116 163.273 91.5471C163.273 95.0826 165.491 97.9486 168.226 97.9486Z" stroke="#3F3D56" stroke-miterlimit="10"/>
<path d="M155.408 115.698C160.395 115.698 164.439 113.353 164.439 110.461C164.439 107.568 160.395 105.223 155.408 105.223C150.42 105.223 146.376 107.568 146.376 110.461C146.376 113.353 150.42 115.698 155.408 115.698Z" stroke="#3F3D56" stroke-miterlimit="10"/>
<path d="M157.592 107.464C157.595 107.83 157.457 108.183 157.208 108.451C157.09 108.579 156.947 108.682 156.788 108.752C156.628 108.823 156.456 108.86 156.281 108.86H153.368C153.009 108.848 152.67 108.694 152.424 108.432C152.179 108.171 152.047 107.822 152.057 107.464C152.056 107.18 152.139 106.902 152.296 106.666C152.941 106.575 153.591 106.531 154.242 106.533C155.334 106.529 156.422 106.654 157.485 106.905C157.557 107.082 157.593 107.272 157.592 107.464Z" fill="white"/>
<path d="M141.278 91.1108C142.083 91.1108 142.735 90.4594 142.735 89.6558C142.735 88.8523 142.083 88.2009 141.278 88.2009C140.474 88.2009 139.822 88.8523 139.822 89.6558C139.822 90.4594 140.474 91.1108 141.278 91.1108Z" fill="white"/>
<path d="M168.372 91.1108C169.176 91.1108 169.828 90.4594 169.828 89.6558C169.828 88.8523 169.176 88.2009 168.372 88.2009C167.567 88.2009 166.915 88.8523 166.915 89.6558C166.915 90.4594 167.567 91.1108 168.372 91.1108Z" fill="white"/>
<path opacity="0.3" d="M169.828 104.787C170.633 104.787 171.285 104.135 171.285 103.332C171.285 102.528 170.633 101.877 169.828 101.877C169.024 101.877 168.372 102.528 168.372 103.332C168.372 104.135 169.024 104.787 169.828 104.787Z" fill="#2D8EFF"/>
<path opacity="0.3" d="M134.286 104.787C135.091 104.787 135.743 104.135 135.743 103.332C135.743 102.528 135.091 101.877 134.286 101.877C133.482 101.877 132.83 102.528 132.83 103.332C132.83 104.135 133.482 104.787 134.286 104.787Z" fill="#2D8EFF"/>
</g>
<defs>
<clipPath id="clip0">
<rect width="313" height="170" fill="white"/>
</clipPath>
</defs>
</svg>
