<svg width="280" height="232" viewBox="0 0 280 232" fill="none" xmlns="http://www.w3.org/2000/svg">
<g clip-path="url(#clip0)">
<path d="M247.57 132.62C246.033 145.796 242.839 156.375 238.455 164.812C232.622 176.053 222.644 180.583 213.73 185.322C211.155 186.689 208.477 187.854 205.721 188.806C189.502 194.439 171.348 192.945 157.089 189.971C147.087 187.883 136.935 186.599 126.729 186.13C123.818 185.999 120.905 185.934 117.988 185.935C113.49 185.941 32.5092 187.479 12.7925 147.539C7.92458 137.686 4.58791 125.651 3.38916 110.981C-0.00292468 69.506 18.6404 42.2665 42.6883 24.4619C88.1796 -9.21825 150.535 -7.80579 195.355 26.7616C225.21 49.787 253.164 84.6345 247.57 132.62Z" fill="#F2F2F2"/>
<path d="M87.5 120.613C87.5 153.58 67.9125 165.091 43.75 165.091C19.5875 165.091 0 153.58 0 120.613C0 87.6455 43.75 45.7058 43.75 45.7058C43.75 45.7058 87.5 87.6455 87.5 120.613Z" fill="#2D8EFF"/>
<path d="M42.1563 160.048L42.6043 132.457L61.2517 98.3239L42.6746 128.129L42.8759 115.723L55.7276 91.0281L42.9292 112.44L43.2915 90.1278L57.0535 70.4672L43.3484 86.6192L43.5747 45.7059L42.1522 99.8677L42.2692 97.6334L28.2774 76.2046L42.0449 101.922L40.7411 126.842L40.7024 126.18L24.5723 103.63L40.6534 128.517L40.4903 131.633L40.4611 131.68L40.4746 131.936L37.1671 195.159H41.5861L42.1164 162.503L58.158 137.677L42.1563 160.048Z" fill="#3F3D56"/>
<path d="M280 122.656C280 155.623 260.412 167.134 236.25 167.134C212.088 167.134 192.5 155.623 192.5 122.656C192.5 89.6883 236.25 47.7487 236.25 47.7487C236.25 47.7487 280 89.6883 280 122.656Z" fill="#2D8EFF"/>
<path d="M234.656 162.091L235.104 134.5L253.752 100.367L235.175 130.172L235.376 117.766L248.228 93.071L235.429 114.483L235.791 92.1707L249.553 72.51L235.848 88.662L236.075 47.7488L234.652 101.911L234.769 99.6763L220.777 78.2474L234.545 103.965L233.241 128.885L233.202 128.223L217.072 105.673L233.153 130.56L232.99 133.676L232.961 133.723L232.975 133.979L229.667 197.201H234.086L234.616 164.546L250.658 139.72L234.656 162.091Z" fill="#3F3D56"/>
<path d="M189 94.6567C189 130.701 167.584 143.286 141.167 143.286C114.749 143.286 93.3333 130.701 93.3333 94.6567C93.3333 58.6124 141.167 12.7584 141.167 12.7584C141.167 12.7584 189 58.6124 189 94.6567Z" fill="#2D8EFF"/>
<path d="M139.424 137.773L139.914 107.607L160.302 70.2874L139.991 102.875L140.211 89.311L154.262 62.3108L140.269 85.7215L140.665 61.3265L155.712 39.8308L140.728 57.4904L140.975 12.7585L139.42 71.9754L139.548 69.5325L124.25 46.1037L139.302 74.2219L137.877 101.467L137.835 100.744L120.199 76.0888L137.781 103.299L137.603 106.706L137.571 106.757L137.586 107.037L133.969 176.16H138.801L139.381 140.457L156.92 113.313L139.424 137.773Z" fill="#3F3D56"/>
<path d="M242.667 200.19C242.667 207.927 192 232 129.5 232C66.9998 232 16.3333 207.927 16.3333 200.19C16.3333 192.454 62.9165 175.093 125.417 175.093C187.917 175.093 242.667 192.454 242.667 200.19Z" fill="#3F3D56"/>
<path opacity="0.1" d="M242.667 200.19C242.667 207.927 192 232 129.5 232C66.9998 232 16.3333 207.927 16.3333 200.19C16.3333 192.454 62.9165 175.093 125.417 175.093C187.917 175.093 242.667 192.454 242.667 200.19Z" fill="black"/>
<path d="M242.667 200.19C242.667 207.927 192 214.198 129.5 214.198C66.9998 214.198 16.3333 207.927 16.3333 200.19C16.3333 192.454 62.9165 175.093 125.417 175.093C187.917 175.093 242.667 192.454 242.667 200.19Z" fill="#3F3D56"/>
<path d="M167.542 161.4C167.542 172.498 174.5 181.479 183.099 181.479L167.542 161.4Z" fill="#3F3D56"/>
<path d="M183.099 181.479C183.099 170.256 190.865 161.175 200.461 161.175L183.099 181.479Z" fill="#2D8EFF"/>
<path d="M173.179 162.406C173.179 172.948 177.616 181.479 183.099 181.479L173.179 162.406Z" fill="#2D8EFF"/>
<path d="M183.099 181.479C183.099 167.139 192.075 155.535 203.167 155.535L183.099 181.479Z" fill="#3F3D56"/>
<path d="M179.827 181.62C179.827 181.62 182.033 181.552 182.698 181.079C183.363 180.605 186.092 180.039 186.257 180.799C186.422 181.559 189.572 184.578 187.081 184.598C184.59 184.618 181.294 184.21 180.63 183.805C179.966 183.401 179.827 181.62 179.827 181.62Z" fill="#A8A8A8"/>
<path opacity="0.2" d="M187.126 184.334C184.635 184.354 181.338 183.945 180.674 183.541C180.169 183.233 179.968 182.128 179.9 181.618C179.854 181.62 179.827 181.621 179.827 181.621C179.827 181.621 179.966 183.401 180.63 183.805C181.294 184.21 184.59 184.618 187.081 184.598C187.8 184.592 188.049 184.336 188.035 183.957C187.935 184.186 187.661 184.329 187.126 184.334Z" fill="black"/>
<path opacity="0.1" d="M130.958 204.86C152.221 204.86 169.458 202.116 169.458 198.731C169.458 195.347 152.221 192.603 130.958 192.603C109.695 192.603 92.4583 195.347 92.4583 198.731C92.4583 202.116 109.695 204.86 130.958 204.86Z" fill="black"/>
<path d="M147.875 185.015H144.083V193.77H147.875V185.015Z" fill="#FFB9B9"/>
<path d="M148.167 66.8237H133.583V93.0885H148.167V66.8237Z" fill="#FF6584"/>
<path d="M158.877 116.532L159.382 120.572L146.09 124.612L144.407 117.205L158.877 116.532Z" fill="#FFB9B9"/>
<path d="M139.192 77.6444C139.192 77.6444 138.855 80.6745 138.182 80.6745C137.509 80.6745 135.154 81.853 135.154 81.853L134.481 85.0515L139.192 87.9133L146.931 87.0716L149.118 83.7047L146.931 81.5163C146.931 81.5163 145.08 77.476 145.753 76.6343C146.426 75.7926 139.192 77.6444 139.192 77.6444Z" fill="#FFB9B9"/>
<path opacity="0.1" d="M139.192 77.6444C139.192 77.6444 138.855 80.6745 138.182 80.6745C137.509 80.6745 135.154 81.853 135.154 81.853L134.481 85.0515L139.192 87.9133L146.931 87.0716L149.118 83.7047L146.931 81.5163C146.931 81.5163 145.08 77.476 145.753 76.6343C146.426 75.7926 139.192 77.6444 139.192 77.6444Z" fill="black"/>
<path d="M118.161 182.522C118.161 182.522 116.646 192.623 114.796 193.296C112.945 193.97 121.862 195.148 121.862 195.148L122.535 191.445C122.535 191.445 122.703 184.711 123.376 183.701C124.049 182.691 118.161 182.522 118.161 182.522Z" fill="#FFB9B9"/>
<path d="M135.322 123.77C135.322 123.77 159.718 119.393 159.886 118.552C160.055 117.71 164.934 124.949 161.905 139.09C158.877 153.231 151.306 186.563 151.306 186.563C151.306 186.563 143.566 188.919 143.734 187.068C143.903 185.216 146.426 153.062 146.426 153.062L144.744 139.426L141.884 141.11L129.938 164.678L123.881 185.047C123.881 185.047 116.142 186.394 117.319 183.532C118.497 180.671 122.367 158.449 122.367 158.449L132.966 127.137C132.966 127.137 132.63 123.77 135.322 123.77Z" fill="#2F2E41"/>
<path d="M141.463 79.917C145.366 79.917 148.53 76.7514 148.53 72.8466C148.53 68.9417 145.366 65.7761 141.463 65.7761C137.56 65.7761 134.397 68.9417 134.397 72.8466C134.397 76.7514 137.56 79.917 141.463 79.917Z" fill="#FFB9B9"/>
<path d="M148.782 81.6846C148.782 81.6846 145.417 84.8831 137.509 84.0414C129.601 83.1997 139.696 102.054 139.696 102.054L142.893 121.077C142.893 121.077 157.026 119.394 157.531 116.195C158.036 112.996 148.782 81.6846 148.782 81.6846Z" fill="#F2F2F2"/>
<path d="M145.417 99.6974C145.417 99.6974 141.379 97.6772 139.865 92.1219C138.35 86.5666 137.004 80.8429 136.163 81.0112C135.453 81.1534 128.865 83.6957 126.73 85.3958C126.337 85.7092 126.094 85.994 126.068 86.2299C125.9 87.745 132.125 102.896 132.125 102.896C132.125 102.896 137.004 113.838 134.986 117.373C132.967 120.909 132.798 125.454 136.5 125.117C140.201 124.781 152.483 124.107 150.801 114.68C150.801 114.68 153.998 121.245 162.915 116.532C162.915 116.532 168.299 115.69 168.131 113.838C167.962 111.986 159.55 95.9938 159.55 95.9938C159.55 95.9938 158.204 88.9234 160.728 86.2299L155.007 79.4961C155.007 79.4961 153.661 77.476 152.315 78.4861C150.969 79.4961 147.941 81.1796 147.436 81.3479C146.931 81.5162 146.599 80.7428 146.599 80.7428C145.434 83.1824 144.966 85.8974 145.249 88.5867C145.753 92.9636 145.417 99.6974 145.417 99.6974Z" fill="#2F2E41"/>
<path d="M118.665 191.276C118.665 191.276 118.29 190.098 116.122 191.276C116.122 191.276 116.815 187.573 114.459 187.573C112.104 187.573 111.262 191.95 111.262 191.95C111.262 191.95 110.589 194.812 106.047 195.99C101.504 197.168 105.037 201.209 108.234 201.209C111.431 201.209 115.637 198.683 115.637 198.683C115.637 198.683 124.386 198.852 124.554 197.168C124.722 195.485 123.713 190.435 123.04 190.435C122.367 190.435 121.021 192.791 121.021 192.791L118.665 191.276Z" fill="#2F2E41"/>
<path d="M147.268 188.314C147.268 188.314 144.912 185.788 143.566 189.997C142.22 194.206 141.211 195.889 142.052 196.562C142.893 197.236 143.566 196.899 143.23 198.246C142.893 199.593 144.239 202.454 147.268 202.454C150.296 202.454 151.137 200.266 150.969 198.751C150.801 197.236 149.455 195.384 149.455 195.384L148.109 190.67L147.268 188.314Z" fill="#2F2E41"/>
<path d="M160.559 69.9005L151.642 72.9307C151.642 72.9307 143.566 77.6443 147.099 78.6544C150.633 79.6644 153.661 75.6242 153.661 75.6242L161.401 73.6041L160.559 69.9005Z" fill="#FFB9B9"/>
<path d="M136.655 61.913C135.596 62.6387 134.754 63.6327 133.952 64.6356C132.324 66.6735 130.729 69.1074 131.13 71.6853C131.282 72.6645 131.717 73.5758 131.962 74.5359C132.292 75.8318 132.271 77.1879 132.247 78.525C132.266 79.0932 132.196 79.6609 132.038 80.207C131.803 80.7392 131.525 81.2519 131.209 81.7405C130.399 83.2506 130.379 85.0449 130.378 86.759C130.339 87.336 130.418 87.915 130.609 88.4608C130.83 88.9762 131.242 89.3803 131.584 89.825C132.15 90.5764 132.528 91.4527 132.685 92.3803C132.843 93.308 132.776 94.2599 132.49 95.1564C132.929 95.1583 133.36 95.0348 133.731 94.8005C134.103 94.5661 134.4 94.2306 134.587 93.8334C134.646 94.2605 134.609 94.6953 134.48 95.1066C134.35 95.5179 134.132 95.8955 133.84 96.2125C135.766 95.6398 137.83 94.6742 138.533 92.7909C138.74 92.151 138.856 91.4855 138.879 90.8135C139.253 86.0894 139.466 81.1887 137.773 76.7631C137.231 75.3472 136.494 73.9766 136.313 72.4714C136.131 70.9662 136.686 69.2268 138.068 68.6052C138.1 68.9905 138.271 69.3511 138.549 69.6196C138.857 69.8481 139.426 69.7048 139.431 69.3215L140.099 70.2515C140.355 70.1257 140.574 69.9349 140.733 69.6982L141.191 70.2587L142.164 69.5503L143.009 70.4623C143.335 70.2768 143.594 69.9943 143.751 69.6542C143.933 69.9261 144.158 70.2248 144.483 70.2542C145.192 70.3183 145.338 69.1929 145.958 68.8419C146.186 68.7407 146.444 68.725 146.683 68.7976C146.922 68.8702 147.128 69.0262 147.262 69.2374C147.517 69.672 147.61 70.1831 147.524 70.6798C147.268 72.9946 145.294 75.1069 145.879 77.361C146.208 78.6286 147.317 79.6449 147.401 80.9519C147.467 81.9963 146.854 82.9844 146.863 84.031C146.874 85.2575 147.721 86.2992 148.548 87.2048C150.019 88.8165 151.568 90.3526 153.194 91.8133L152.692 90.9339C152.926 90.9154 153.162 90.9479 153.383 91.0292C153.604 91.1104 153.804 91.2385 153.971 91.4046C154.116 90.8992 153.876 90.3725 153.65 89.8979C152.298 87.0559 151.206 84.0297 151.042 80.886C150.816 76.5163 152.386 72.0786 151.391 67.8178C150.818 65.4322 149.484 63.2983 147.591 61.7396C146.67 60.9815 145.972 60.5275 144.781 60.4439C143.448 60.3281 142.108 60.3386 140.778 60.4753C139.308 60.6153 137.893 61.1085 136.655 61.913Z" fill="#FF6584"/>
<path d="M153.661 79.6644C153.661 79.6644 155.512 79.8327 156.353 79.6644C157.194 79.496 158.372 78.6543 158.372 78.6543L164.766 73.9407L159.213 74.7824C159.213 74.7824 160.223 67.0386 159.886 66.8703C159.55 66.7019 176.206 63.5034 175.87 68.7221C175.533 73.9407 166.112 84.2097 160.728 86.2298L157.194 86.7348L153.661 79.6644Z" fill="#2F2E41"/>
<path d="M171.792 139.346H92.4583V158.024H171.792V139.346Z" fill="white"/>
<path d="M161.438 143.578H102.521V153.5H161.438V143.578Z" fill="#3F3D56"/>
<path d="M116.212 148.321C116.189 148.067 115.064 147.954 113.521 148.018C114.415 146.758 114.933 145.752 114.733 145.594C114.544 145.444 113.77 146.09 112.828 147.139C112.739 145.732 112.533 144.745 112.292 144.745C112.029 144.745 111.807 145.919 111.734 147.533C110.423 146.59 109.365 146.036 109.202 146.243C109.047 146.44 109.755 147.272 110.881 148.267C109.395 148.487 108.348 148.799 108.371 149.049C108.395 149.303 109.519 149.416 111.062 149.353C110.168 150.613 109.65 151.618 109.851 151.776C110.04 151.926 110.813 151.28 111.755 150.231C111.844 151.638 112.051 152.625 112.292 152.625C112.554 152.625 112.777 151.451 112.85 149.837C114.16 150.78 115.218 151.334 115.381 151.127C115.537 150.93 114.828 150.099 113.702 149.103C115.189 148.883 116.236 148.571 116.212 148.321Z" fill="white"/>
<path d="M126.129 148.321C126.105 148.067 124.981 147.954 123.438 148.018C124.332 146.758 124.85 145.752 124.649 145.594C124.46 145.444 123.687 146.09 122.745 147.139C122.656 145.732 122.449 144.745 122.208 144.745C121.946 144.745 121.723 145.919 121.65 147.533C120.34 146.59 119.282 146.036 119.119 146.243C118.963 146.44 119.672 147.272 120.798 148.267C119.311 148.487 118.264 148.799 118.288 149.049C118.311 149.303 119.436 149.416 120.979 149.353C120.085 150.613 119.567 151.618 119.767 151.776C119.956 151.926 120.73 151.28 121.672 150.231C121.761 151.638 121.967 152.625 122.208 152.625C122.471 152.625 122.693 151.451 122.766 149.837C124.077 150.78 125.135 151.334 125.298 151.127C125.453 150.93 124.745 150.099 123.619 149.103C125.105 148.883 126.152 148.571 126.129 148.321Z" fill="white"/>
<path d="M136.046 148.321C136.022 148.067 134.897 147.954 133.354 148.018C134.248 146.758 134.766 145.752 134.566 145.594C134.377 145.444 133.603 146.09 132.662 147.139C132.573 145.732 132.366 144.745 132.125 144.745C131.862 144.745 131.64 145.919 131.567 147.533C130.257 146.59 129.198 146.036 129.035 146.243C128.88 146.44 129.588 147.272 130.714 148.267C129.228 148.487 128.181 148.799 128.204 149.049C128.228 149.303 129.353 149.416 130.896 149.353C130.002 150.613 129.484 151.618 129.684 151.776C129.873 151.926 130.647 151.28 131.588 150.231C131.677 151.638 131.884 152.625 132.125 152.625C132.388 152.625 132.61 151.451 132.683 149.837C133.993 150.78 135.052 151.334 135.215 151.127C135.37 150.93 134.662 150.099 133.536 149.103C135.022 148.883 136.069 148.571 136.046 148.321Z" fill="white"/>
<path d="M145.962 148.321C145.939 148.067 144.814 147.954 143.271 148.018C144.165 146.758 144.683 145.752 144.483 145.594C144.294 145.444 143.52 146.09 142.578 147.139C142.489 145.732 142.283 144.745 142.042 144.745C141.779 144.745 141.557 145.919 141.484 147.533C140.173 146.59 139.115 146.036 138.952 146.243C138.797 146.44 139.505 147.272 140.631 148.267C139.145 148.487 138.098 148.799 138.121 149.049C138.145 149.303 139.269 149.416 140.812 149.353C139.918 150.613 139.4 151.618 139.601 151.776C139.79 151.926 140.563 151.28 141.505 150.231C141.594 151.638 141.801 152.625 142.042 152.625C142.304 152.625 142.527 151.451 142.6 149.837C143.91 150.78 144.968 151.334 145.131 151.127C145.287 150.93 144.578 150.099 143.452 149.103C144.939 148.883 145.986 148.571 145.962 148.321Z" fill="white"/>
<path d="M155.879 148.321C155.855 148.067 154.731 147.954 153.188 148.018C154.082 146.758 154.6 145.752 154.399 145.594C154.21 145.444 153.437 146.09 152.495 147.139C152.406 145.732 152.199 144.745 151.958 144.745C151.696 144.745 151.473 145.919 151.4 147.533C150.09 146.59 149.032 146.036 148.869 146.243C148.713 146.44 149.422 147.272 150.548 148.267C149.061 148.487 148.014 148.799 148.038 149.049C148.061 149.303 149.186 149.416 150.729 149.353C149.835 150.613 149.317 151.618 149.517 151.776C149.706 151.926 150.48 151.28 151.422 150.231C151.511 151.638 151.717 152.625 151.958 152.625C152.221 152.625 152.443 151.451 152.516 149.837C153.827 150.78 154.885 151.334 155.048 151.127C155.203 150.93 154.495 150.099 153.369 149.103C154.855 148.883 155.902 148.571 155.879 148.321Z" fill="white"/>
<path d="M125.059 131.346C125.059 131.346 124.218 142.457 128.256 142.962C132.294 143.467 128.592 130.336 128.592 130.336L125.059 131.346Z" fill="#FFB9B9"/>
<path d="M127.246 85.8932L126.068 86.2299C126.068 86.2299 121.189 125.286 124.386 132.861C124.386 132.861 127.751 131.009 129.433 131.346L132.125 99.529L127.246 85.8932Z" fill="#2F2E41"/>
</g>
<defs>
<clipPath id="clip0">
<rect width="280" height="232" fill="white"/>
</clipPath>
</defs>
</svg>
