<svg width="333" height="278" viewBox="0 0 333 278" fill="none" xmlns="http://www.w3.org/2000/svg">
<g clip-path="url(#clip0)">
<path d="M119.202 100.89L86.9767 82.3013L68.3712 114.498L100.597 133.087L119.202 100.89Z" fill="#F2F2F2"/>
<path d="M284.622 84.5207C299.721 84.5207 311.961 72.2918 311.961 57.2066C311.961 42.1215 299.721 29.8926 284.622 29.8926C269.523 29.8926 257.284 42.1215 257.284 57.2066C257.284 72.2918 269.523 84.5207 284.622 84.5207Z" fill="#2D8EFF"/>
<path d="M267.906 19.3314C271.314 27.6791 279.986 32.0383 279.986 32.0383C279.986 32.0383 283.133 22.8631 279.725 14.5154C276.318 6.16775 267.646 1.80859 267.646 1.80859C267.646 1.80859 264.499 10.9837 267.906 19.3314Z" fill="#3F3D56"/>
<path d="M271.113 17.0506C278.302 22.4986 280.273 31.9954 280.273 31.9954C280.273 31.9954 270.589 32.6593 263.399 27.2113C256.21 21.7633 254.238 12.2665 254.238 12.2665C254.238 12.2665 263.923 11.6026 271.113 17.0506Z" fill="#2D8EFF"/>
<path d="M281.353 14.5598C278.014 22.9351 281.237 32.0841 281.237 32.0841C281.237 32.0841 289.873 27.6541 293.212 19.2787C296.551 10.9034 293.328 1.75439 293.328 1.75439C293.328 1.75439 284.692 6.18446 281.353 14.5598Z" fill="#3F3D56"/>
<path d="M285.247 15.1381C286.645 24.0445 281.474 32.2527 281.474 32.2527C281.474 32.2527 274.035 26.0209 272.637 17.1145C271.238 8.20822 276.41 0 276.41 0C276.41 0 283.848 6.23181 285.247 15.1381Z" fill="#2D8EFF"/>
<path d="M283.119 68.3711C290.878 68.3711 297.168 62.0868 297.168 54.3347C297.168 46.5826 290.878 40.2983 283.119 40.2983C275.36 40.2983 269.07 46.5826 269.07 54.3347C269.07 62.0868 275.36 68.3711 283.119 68.3711Z" fill="#F2F2F2"/>
<path d="M277.217 54.9724C279.734 54.9724 281.774 52.9342 281.774 50.42C281.774 47.9058 279.734 45.8677 277.217 45.8677C274.701 45.8677 272.661 47.9058 272.661 50.42C272.661 52.9342 274.701 54.9724 277.217 54.9724Z" fill="#3F3D56"/>
<path d="M324.647 225.675C322.994 225.675 321.379 225.186 320.006 224.269C318.632 223.352 317.561 222.048 316.929 220.523C316.297 218.998 316.131 217.32 316.454 215.701C316.776 214.082 317.571 212.595 318.74 211.428C319.908 210.261 321.396 209.466 323.017 209.144C324.637 208.822 326.317 208.987 327.843 209.619C329.37 210.25 330.674 211.32 331.592 212.693C332.51 214.065 333 215.679 333 217.329C332.997 219.542 332.117 221.663 330.551 223.228C328.985 224.793 326.861 225.673 324.647 225.675ZM324.647 209.742C323.145 209.742 321.676 210.187 320.427 211.021C319.179 211.854 318.205 213.039 317.631 214.426C317.056 215.812 316.905 217.338 317.198 218.81C317.491 220.281 318.215 221.633 319.277 222.694C320.339 223.755 321.692 224.478 323.165 224.771C324.638 225.064 326.165 224.913 327.553 224.339C328.94 223.765 330.126 222.792 330.961 221.545C331.795 220.297 332.241 218.83 332.241 217.329C332.238 215.318 331.438 213.389 330.014 211.967C328.59 210.544 326.66 209.744 324.647 209.742Z" fill="#3F3D56"/>
<path d="M101.381 139.56C99.7287 139.56 98.1136 139.071 96.7399 138.154C95.3662 137.236 94.2955 135.933 93.6632 134.408C93.031 132.883 92.8656 131.205 93.1879 129.586C93.5102 127.967 94.3058 126.48 95.4741 125.313C96.6423 124.145 98.1307 123.351 99.7512 123.029C101.372 122.707 103.051 122.872 104.578 123.503C106.104 124.135 107.409 125.205 108.327 126.577C109.244 127.95 109.734 129.563 109.734 131.214C109.732 133.427 108.851 135.548 107.285 137.113C105.719 138.677 103.596 139.558 101.381 139.56ZM101.381 123.627C99.8789 123.627 98.4106 124.072 97.1618 124.906C95.913 125.739 94.9396 126.924 94.3648 128.311C93.7901 129.697 93.6397 131.223 93.9327 132.694C94.2257 134.166 94.949 135.518 96.011 136.579C97.0731 137.64 98.4262 138.363 99.8993 138.656C101.372 138.948 102.899 138.798 104.287 138.224C105.675 137.65 106.861 136.677 107.695 135.429C108.53 134.182 108.975 132.715 108.975 131.214C108.973 129.203 108.172 127.274 106.748 125.852C105.325 124.429 103.394 123.629 101.381 123.627Z" fill="#3F3D56"/>
<path d="M302.069 61.2739L257.652 110.804C260.04 112.655 262.021 114.977 263.472 117.627C264.922 120.276 265.811 123.195 266.084 126.203C266.356 129.21 266.005 132.242 265.054 135.108C264.103 137.975 262.571 140.615 260.554 142.864C258.537 145.113 256.078 146.923 253.33 148.181C250.583 149.44 247.605 150.12 244.583 150.178C241.561 150.237 238.559 149.673 235.765 148.523C232.97 147.372 230.443 145.659 228.34 143.49L166.47 212.481C184.308 226.332 206.265 233.836 228.856 233.802C285.115 233.802 330.722 188.237 330.722 132.029C330.756 105.616 320.476 80.2319 302.069 61.2739Z" fill="#F2F2F2"/>
<path d="M244.909 142.595C252.248 142.595 258.198 136.651 258.198 129.318C258.198 121.985 252.248 116.04 244.909 116.04C237.569 116.04 231.619 121.985 231.619 129.318C231.619 136.651 237.569 142.595 244.909 142.595Z" fill="#F2F2F2"/>
<path d="M175.41 40.1177C182.494 40.1177 188.237 34.3802 188.237 27.3026C188.237 20.2251 182.494 14.4875 175.41 14.4875C168.326 14.4875 162.584 20.2251 162.584 27.3026C162.584 34.3802 168.326 40.1177 175.41 40.1177Z" fill="#2F2E41"/>
<path d="M151.29 117.88L154.265 175.852C154.265 175.852 153.769 217.473 156.745 217.969C159.721 218.464 165.176 221.932 166.664 219.455C168.152 216.978 175.591 140.672 175.591 140.672C175.591 140.672 177.574 219.951 183.526 220.446C189.477 220.941 196.42 217.969 197.412 218.464C198.404 218.96 197.908 119.366 197.908 119.366L151.29 117.88Z" fill="#2F2E41"/>
<path d="M160.217 217.472C160.217 217.472 156.745 217.472 155.753 218.959C154.761 220.445 151.29 227.878 151.29 227.878C151.29 227.878 144.843 233.793 151.786 234.288C158.729 234.784 162.2 233.328 162.2 232.337C162.2 231.346 162.2 228.869 163.688 228.373C165.176 227.878 166.664 225.4 166.664 224.409C166.664 223.418 165.176 216.977 160.217 217.472Z" fill="#2F2E41"/>
<path d="M186.997 217.968C186.997 217.968 184.517 227.878 186.997 228.374C189.477 228.869 190.965 229.86 191.46 231.346C191.956 232.833 196.916 234.552 200.883 234.056C204.851 233.561 206.834 230.851 205.347 229.364C203.859 227.878 196.42 219.455 195.924 217.968C195.428 216.482 186.997 217.968 186.997 217.968Z" fill="#2F2E41"/>
<path d="M169.639 36.6196C169.639 36.6196 168.648 44.0519 166.664 45.0429C164.68 46.0339 167.656 51.4843 167.656 51.4843L176.583 52.9707L184.517 46.5294C184.517 46.5294 183.03 37.1151 183.03 36.6196C183.03 36.1241 169.639 36.6196 169.639 36.6196Z" fill="#9F616A"/>
<path opacity="0.1" d="M169.639 36.6196C169.639 36.6196 168.648 44.0519 166.664 45.0429C164.68 46.0339 167.656 51.4843 167.656 51.4843L176.583 52.9707L184.517 46.5294C184.517 46.5294 183.03 37.1151 183.03 36.6196C183.03 36.1241 169.639 36.6196 169.639 36.6196Z" fill="black"/>
<path d="M175.095 43.061C181.668 43.061 186.997 37.7369 186.997 31.1693C186.997 24.6017 181.668 19.2776 175.095 19.2776C168.521 19.2776 163.192 24.6017 163.192 31.1693C163.192 37.7369 168.521 43.061 175.095 43.061Z" fill="#9F616A"/>
<path d="M174.847 51.2364C174.847 51.2364 169.887 42.8131 167.408 43.3085C164.928 43.804 157.241 45.0427 156.249 44.5473C155.257 44.0518 148.81 66.8442 148.81 66.8442C148.81 66.8442 141.867 111.934 146.33 117.384C150.794 122.834 166.168 119.861 168.152 125.312C170.135 130.762 201.379 122.339 201.379 119.366C201.379 116.393 201.875 70.8081 202.371 67.3397C202.867 63.8713 197.908 45.5382 197.908 45.5382C197.908 45.5382 186.253 42.3176 184.269 43.3085C182.286 44.2995 181.294 47.2724 174.847 51.2364Z" fill="#575A88"/>
<path d="M157.241 46.0339L156.249 44.5474C156.249 44.5474 145.835 46.0339 142.859 45.5384C139.883 45.0429 130.956 46.0339 130.956 46.0339C130.956 46.0339 132.94 40.5835 134.924 40.088C136.908 39.5925 139.387 38.1061 139.387 38.1061C139.387 38.1061 134.428 30.6737 139.387 28.1963C139.387 28.1963 116.574 37.1151 115.087 45.5384C113.599 53.9617 149.802 66.8444 149.802 66.8444L157.241 46.0339Z" fill="#575A88"/>
<path d="M193.94 46.5296L197.908 45.5386L217.745 47.5205L211.298 40.5837C211.298 40.5837 215.265 35.6288 212.786 33.1514C212.786 33.1514 239.07 43.0611 236.095 49.5025C233.119 55.9438 201.875 67.3401 200.387 67.8356C198.9 68.3311 193.94 46.5296 193.94 46.5296Z" fill="#575A88"/>
<path d="M142.089 29.5307C143.317 29.7743 144.366 30.5405 145.371 31.2864C146.345 31.9816 147.279 32.7311 148.168 33.5313C152.679 37.7442 154.337 44.1004 155.771 50.1005C154.75 50.9603 153.082 50.2453 152.397 49.1001C151.711 47.9549 151.664 46.5563 151.395 45.2494C151.125 43.9425 150.467 42.538 149.194 42.1342C149.462 42.9637 148.816 43.8646 148.008 44.194C147.2 44.5234 146.291 44.4324 145.424 44.336C145.021 44.314 144.624 44.2237 144.251 44.0692C143.578 43.7441 143.185 43.0447 142.819 42.3936C141.864 40.6968 140.814 39.0553 139.674 37.4772C139.415 37.0694 139.078 36.7169 138.682 36.44C137.094 35.4711 135.388 34.204 136.179 31.9039C136.832 30.0054 140.356 29.1868 142.089 29.5307Z" fill="#9F616A"/>
<path d="M208.027 32.4795C206.242 32.5684 204.703 33.729 203.396 34.9466C197.926 40.0779 194.404 46.9439 193.429 54.3769C193.365 54.8752 193.346 55.462 193.728 55.7887C194.157 56.1561 194.865 55.9386 195.218 55.4971C195.527 55.0219 195.721 54.4809 195.783 53.9174C196.13 52.2324 196.721 50.6072 197.539 49.0932C197.958 48.3168 198.541 47.4993 199.413 47.3619C200.712 47.1572 201.683 48.5316 202.924 48.9668C204.388 49.4805 206.029 48.5606 206.919 47.2904C207.809 46.0202 208.157 44.4632 208.648 42.992C209.138 41.521 209.865 40.0124 211.204 39.2278C212.629 38.3923 215.91 37.8118 214.519 35.467C213.508 33.7632 209.895 32.3866 208.027 32.4795Z" fill="#9F616A"/>
<path d="M162.203 24.5891C162.203 24.5891 159.041 16.373 163.627 13.687L164.892 17.321C164.892 17.321 176.436 10.3689 179.441 11.9489L176.594 15.741C176.594 15.741 190.037 15.741 190.986 20.955L186.241 21.113C186.241 21.113 191.302 24.4311 191.46 29.8031L181.339 30.4351L186.241 33.2792C186.241 33.2792 167.897 35.8072 163.469 28.5391L162.203 24.5891Z" fill="#2F2E41"/>
<path d="M131.7 33.8941L139.139 27.9482C139.139 27.9482 136.66 35.3806 139.139 37.858L129.717 39.84L131.7 33.8941Z" fill="#575A88"/>
<path d="M218.489 37.3631L212.042 32.4082C212.042 32.4082 213.034 38.8495 211.05 40.336C209.066 41.8225 216.505 42.318 216.505 42.318L218.489 37.3631Z" fill="#575A88"/>
<path d="M68.2078 247.506C83.3065 247.506 95.5464 235.277 95.5464 220.192C95.5464 205.106 83.3065 192.877 68.2078 192.877C53.109 192.877 40.8691 205.106 40.8691 220.192C40.8691 235.277 53.109 247.506 68.2078 247.506Z" fill="#2D8EFF"/>
<path d="M42.2636 187.917C47.7145 195.102 57.2193 197.074 57.2193 197.074C57.2193 197.074 57.8866 187.398 52.4358 180.213C46.9849 173.029 37.4801 171.057 37.4801 171.057C37.4801 171.057 36.8128 180.733 42.2636 187.917Z" fill="#3F3D56"/>
<path d="M44.7713 184.886C53.1256 188.293 57.4862 196.958 57.4862 196.958C57.4862 196.958 48.3019 200.1 39.9477 196.693C31.5934 193.286 27.2328 184.621 27.2328 184.621C27.2328 184.621 36.4171 181.479 44.7713 184.886Z" fill="#2D8EFF"/>
<path d="M54.02 179.836C52.9606 188.789 58.4397 196.795 58.4397 196.795C58.4397 196.795 65.6365 190.286 66.696 181.333C67.7554 172.38 62.2762 164.374 62.2762 164.374C62.2762 164.374 55.0794 170.883 54.02 179.836Z" fill="#3F3D56"/>
<path d="M57.9306 179.39C61.585 187.633 58.7121 196.897 58.7121 196.897C58.7121 196.897 49.9144 192.797 46.26 184.555C42.6056 176.312 45.4784 167.047 45.4784 167.047C45.4784 167.047 54.2762 171.147 57.9306 179.39Z" fill="#2D8EFF"/>
<path d="M57.6591 235.634C65.4182 235.634 71.7082 229.35 71.7082 221.598C71.7082 213.846 65.4182 207.562 57.6591 207.562C49.9001 207.562 43.6101 213.846 43.6101 221.598C43.6101 229.35 49.9001 235.634 57.6591 235.634Z" fill="#F2F2F2"/>
<path d="M52.3295 230.605C54.846 230.605 56.886 228.567 56.886 226.053C56.886 223.539 54.846 221.5 52.3295 221.5C49.8131 221.5 47.7731 223.539 47.7731 226.053C47.7731 228.567 49.8131 230.605 52.3295 230.605Z" fill="#3F3D56"/>
<path d="M175.803 234.78C190.901 234.78 203.141 222.551 203.141 207.466C203.141 192.381 190.901 180.152 175.803 180.152C160.704 180.152 148.464 192.381 148.464 207.466C148.464 222.551 160.704 234.78 175.803 234.78Z" fill="#2D8EFF"/>
<path d="M163.866 167.827C166.223 176.529 174.293 181.919 174.293 181.919C174.293 181.919 178.544 173.199 176.188 164.497C173.831 155.794 165.76 150.405 165.76 150.405C165.76 150.405 161.51 159.125 163.866 167.827Z" fill="#3F3D56"/>
<path d="M167.329 165.957C173.794 172.245 174.584 181.912 174.584 181.912C174.584 181.912 164.891 181.383 158.425 175.095C151.959 168.806 151.17 159.14 151.17 159.14C151.17 159.14 160.863 159.668 167.329 165.957Z" fill="#2D8EFF"/>
<path d="M177.798 164.741C173.455 172.643 175.529 182.118 175.529 182.118C175.529 182.118 184.644 178.781 188.987 170.878C193.329 162.975 191.255 153.5 191.255 153.5C191.255 153.5 182.14 156.838 177.798 164.741Z" fill="#3F3D56"/>
<path d="M181.591 165.792C181.884 174.802 175.744 182.314 175.744 182.314C175.744 182.314 169.127 175.218 168.833 166.207C168.539 157.197 174.68 149.685 174.68 149.685C174.68 149.685 181.297 156.781 181.591 165.792Z" fill="#2D8EFF"/>
<path d="M174.664 218.468C182.423 218.468 188.713 212.183 188.713 204.431C188.713 196.679 182.423 190.395 174.664 190.395C166.905 190.395 160.615 196.679 160.615 204.431C160.615 212.183 166.905 218.468 174.664 218.468Z" fill="#F2F2F2"/>
<path d="M174.664 201.017C177.18 201.017 179.22 198.979 179.22 196.464C179.22 193.95 177.18 191.912 174.664 191.912C172.147 191.912 170.107 193.95 170.107 196.464C170.107 198.979 172.147 201.017 174.664 201.017Z" fill="#3F3D56"/>
<path d="M251.364 234.022H108.975V234.781H251.364V234.022Z" fill="#2F2E41"/>
<path d="M308.889 76.207C313.188 76.207 316.673 73.4894 316.673 70.1372C316.673 66.7849 313.188 64.0674 308.889 64.0674C304.59 64.0674 301.105 66.7849 301.105 70.1372C301.105 73.4894 304.59 76.207 308.889 76.207Z" fill="#2D8EFF"/>
<path d="M93.8395 198.374L106.289 188.413L93.8395 198.374Z" fill="#3F3D56"/>
<path d="M94.6363 206.05C98.3987 203.012 102.294 200.149 106.321 197.46L94.6363 206.05Z" fill="#3F3D56"/>
<path d="M102.94 205.242C107.338 203.153 111.349 200.335 114.806 196.909L102.94 205.242Z" fill="#3F3D56"/>
<path d="M71.764 246.161C75.5387 246.161 78.5986 243.104 78.5986 239.332C78.5986 235.561 75.5387 232.504 71.764 232.504C67.9893 232.504 64.9293 235.561 64.9293 239.332C64.9293 243.104 67.9893 246.161 71.764 246.161Z" fill="#3F3D56"/>
<path d="M37.5906 278C58.3514 278 75.1813 275.974 75.1813 273.475C75.1813 270.976 58.3514 268.95 37.5906 268.95C16.8299 268.95 0 270.976 0 273.475C0 275.974 16.8299 278 37.5906 278Z" fill="#F2F2F2"/>
<path d="M239.973 234.4C238.32 234.4 236.705 233.911 235.332 232.994C233.958 232.077 232.887 230.773 232.255 229.248C231.623 227.723 231.457 226.045 231.78 224.426C232.102 222.807 232.898 221.32 234.066 220.153C235.234 218.986 236.723 218.191 238.343 217.869C239.963 217.547 241.643 217.712 243.169 218.344C244.696 218.975 246 220.045 246.918 221.418C247.836 222.79 248.326 224.404 248.326 226.054C248.324 228.267 247.443 230.389 245.877 231.953C244.311 233.518 242.187 234.398 239.973 234.4ZM239.973 218.467C238.471 218.467 237.002 218.912 235.754 219.746C234.505 220.58 233.531 221.765 232.957 223.151C232.382 224.537 232.231 226.063 232.524 227.535C232.817 229.006 233.541 230.358 234.603 231.419C235.665 232.481 237.018 233.203 238.491 233.496C239.964 233.789 241.491 233.638 242.879 233.064C244.266 232.49 245.452 231.517 246.287 230.27C247.121 229.022 247.567 227.555 247.567 226.054C247.564 224.043 246.764 222.114 245.34 220.692C243.916 219.27 241.986 218.469 239.973 218.467Z" fill="#3F3D56"/>
</g>
<defs>
<clipPath id="clip0">
<rect width="333" height="278" fill="white"/>
</clipPath>
</defs>
</svg>
