<svg width="332" height="275" viewBox="0 0 332 275" fill="none" xmlns="http://www.w3.org/2000/svg">
<g clip-path="url(#clip0)">
<path d="M237.183 62.2578H234.823C234.358 62.2578 233.981 62.6343 233.981 63.0987V94.6848C233.981 95.1492 234.358 95.5256 234.823 95.5256H237.183C237.648 95.5256 238.025 95.1492 238.025 94.6848V63.0987C238.025 62.6343 237.648 62.2578 237.183 62.2578Z" fill="#3F3D56"/>
<path d="M221.821 0H115.221C107.3 0 100.879 6.40962 100.879 14.3163V260.133C100.879 268.04 107.3 274.449 115.221 274.449H221.821C229.742 274.449 236.163 268.04 236.163 260.133V14.3163C236.163 6.40962 229.742 0 221.821 0Z" fill="#3F3D56"/>
<path d="M217.333 7.14844H201.815V9.01187C201.815 10.1718 201.586 11.3203 201.141 12.3919C200.696 13.4634 200.044 14.437 199.222 15.257C198.401 16.0769 197.425 16.7272 196.351 17.1707C195.277 17.6141 194.127 17.842 192.965 17.8414H143.612C142.45 17.842 141.299 17.6141 140.226 17.1707C139.152 16.7272 138.176 16.0769 137.354 15.257C136.532 14.437 135.88 13.4634 135.436 12.3919C134.991 11.3203 134.762 10.1718 134.762 9.01187V7.14844H120.232C117.383 7.14844 114.65 8.27838 112.635 10.2897C110.62 12.301 109.488 15.0289 109.488 17.8733V256.594C109.488 259.439 110.62 262.167 112.635 264.178C114.65 266.189 117.383 267.319 120.232 267.319H217.333C220.183 267.319 222.916 266.189 224.931 264.178C226.946 262.167 228.078 259.439 228.078 256.594V17.8917C228.08 16.4817 227.804 15.0851 227.265 13.7818C226.726 12.4785 225.935 11.294 224.937 10.2962C223.939 9.29833 222.754 8.5067 221.449 7.96658C220.144 7.42645 218.746 7.14844 217.333 7.14844Z" fill="white"/>
<path d="M172.939 8.19629H156.895C156.109 8.19629 155.472 8.83248 155.472 9.61727V10.6024C155.472 11.3872 156.109 12.0234 156.895 12.0234H172.939C173.726 12.0234 174.363 11.3872 174.363 10.6024V9.61727C174.363 8.83248 173.726 8.19629 172.939 8.19629Z" fill="#E6E8EC"/>
<path d="M179.398 12.2832C180.6 12.2832 181.575 11.3101 181.575 10.1099C181.575 8.90956 180.6 7.93652 179.398 7.93652C178.195 7.93652 177.22 8.90956 177.22 10.1099C177.22 11.3101 178.195 12.2832 179.398 12.2832Z" fill="#E6E8EC"/>
<path d="M169.347 166.14C183.481 166.14 194.939 154.703 194.939 140.594C194.939 126.486 183.481 115.048 169.347 115.048C155.213 115.048 143.755 126.486 143.755 140.594C143.755 154.703 155.213 166.14 169.347 166.14Z" fill="white"/>
<path d="M203.007 137.027C203.007 143.78 201.001 150.381 197.242 155.995C193.484 161.61 188.142 165.986 181.891 168.57C175.641 171.154 168.764 171.83 162.129 170.512C155.494 169.195 149.4 165.943 144.616 161.167C139.833 156.392 136.575 150.309 135.256 143.685C133.936 137.062 134.614 130.197 137.203 123.959C139.792 117.72 144.176 112.388 149.801 108.636C155.426 104.885 162.039 102.883 168.804 102.883C173.296 102.883 177.744 103.766 181.894 105.482C186.043 107.198 189.814 109.713 192.99 112.884C196.166 116.054 198.685 119.818 200.404 123.961C202.123 128.103 203.008 132.543 203.007 137.027ZM164.85 155.099L190.223 129.772C190.428 129.568 190.591 129.325 190.702 129.058C190.813 128.79 190.871 128.504 190.871 128.214C190.871 127.925 190.813 127.638 190.702 127.371C190.591 127.103 190.428 126.861 190.223 126.656L187.101 123.563C186.897 123.358 186.654 123.195 186.386 123.084C186.119 122.973 185.832 122.916 185.542 122.916C185.253 122.916 184.966 122.973 184.698 123.084C184.431 123.195 184.188 123.358 183.983 123.563L163.29 144.22L153.627 134.552C153.212 134.14 152.651 133.909 152.066 133.909C151.481 133.909 150.92 134.14 150.505 134.552L147.383 137.687C146.971 138.101 146.739 138.661 146.739 139.245C146.739 139.829 146.971 140.389 147.383 140.803L161.729 155.118C161.934 155.323 162.177 155.485 162.445 155.596C162.713 155.707 163 155.764 163.29 155.764C163.58 155.764 163.867 155.707 164.135 155.596C164.403 155.485 164.646 155.323 164.851 155.118L164.85 155.099Z" fill="#57B894"/>
<path d="M105.115 54.1064H104.761C104.296 54.1064 103.918 54.4829 103.918 54.9473V63.1108C103.918 63.5751 104.296 63.9516 104.761 63.9516H105.115C105.58 63.9516 105.957 63.5751 105.957 63.1108V54.9473C105.957 54.4829 105.58 54.1064 105.115 54.1064Z" fill="#3F3D56"/>
<path d="M105.3 72.1338H104.687C104.222 72.1338 103.844 72.5102 103.844 72.9746V88.4277C103.844 88.8921 104.222 89.2685 104.687 89.2685H105.3C105.765 89.2685 106.142 88.8921 106.142 88.4277V72.9746C106.142 72.5102 105.765 72.1338 105.3 72.1338Z" fill="#3F3D56"/>
<path d="M105.226 95.2642H104.724C104.258 95.2642 103.881 95.6406 103.881 96.105V111.705C103.881 112.17 104.258 112.546 104.724 112.546H105.226C105.691 112.546 106.068 112.17 106.068 111.705V96.105C106.068 95.6406 105.691 95.2642 105.226 95.2642Z" fill="#3F3D56"/>
<path d="M76.7833 140.963C76.8417 141.02 76.9168 141.056 76.9974 141.066C77.078 141.076 77.1597 141.06 77.2305 141.021C77.0795 141.023 76.9288 141.004 76.7833 140.963Z" fill="url(#paint0_linear)"/>
<path d="M93.6903 147.565L93.2488 149.965L92.9082 151.801L92.2888 155.159L86.2823 159.357C86.2823 159.357 85.7409 158.894 84.8478 158.165C82.3862 156.141 77.2125 152.022 73.4135 149.81C72.4363 149.189 71.379 148.702 70.2706 148.365L93.6903 147.565Z" fill="#FEB9B9"/>
<path d="M89.2839 149.35C89.2839 149.35 96.2872 150.55 96.6973 147.565C97.1075 144.579 93.0925 142.966 89.69 142.765C86.2875 142.564 65.8658 143.965 65.8658 143.965C65.8658 143.965 62.2635 148.76 75.2733 149.563L89.2839 149.35Z" fill="#3F3D56"/>
<path d="M104.599 50.834H67.9624V94.1992H104.599V50.834Z" fill="#2F2E41"/>
<path opacity="0.1" d="M104.599 51.0308H67.9624V94.396H104.599V51.0308Z" fill="black"/>
<path d="M25.0242 125.069C24.4209 125.221 23.6499 125.803 22.7925 126.646C19.1001 130.295 13.8117 138.858 13.8117 138.858C7.05039 130.819 14.5323 124.467 17.7214 122.284C18.4968 121.756 19.0177 121.465 19.0177 121.465L25.0242 125.069Z" fill="#FEB9B9"/>
<path d="M93.2882 64.5205C93.2882 64.5205 95.0906 77.1096 101.296 80.1072C107.502 83.1049 93.2882 88.7073 93.2882 88.7073L73.8703 81.5077C73.8703 81.5077 84.882 77.9093 82.6786 67.3173L93.2882 64.5205Z" fill="#FEB9B9"/>
<path d="M72.4674 140.259L72.0282 142.651L71.6714 144.493L71.0519 147.852L65.0455 152.045C65.0455 152.045 64.504 151.587 63.6109 150.858C61.1493 148.835 55.976 144.715 52.1711 142.503C51.1944 141.881 50.137 141.394 49.0283 141.058L72.4674 140.259Z" fill="#FEB9B9"/>
<path d="M67.2717 143.208C67.2717 143.208 73.5569 143.253 73.9351 140.259C74.3132 137.265 70.5097 135.66 67.2717 135.459C64.0336 135.258 44.3593 136.752 44.3593 136.752C44.3593 136.752 41.5681 142.407 53.9433 143.208L67.2717 143.208Z" fill="#2F2E41"/>
<path d="M111.34 190.242C111.065 190.107 110.79 189.968 110.519 189.832L109.781 188.903L100.094 176.642V176.854C100.029 178.902 99.3314 195.128 93.8911 196.627C88.0858 198.224 81.0825 198.625 77.8901 187.834C74.6976 177.043 68.8644 153.462 62.8741 152.062L71.785 144.768C71.785 144.768 77.6848 151.657 80.0886 158.25C79.9985 157.841 75.9243 138.838 79.268 135.476H108.502C108.502 135.476 113.015 148.307 116.108 154.663C118.517 159.597 122.131 171.265 124.458 179.161C126.762 186.957 118.667 193.842 111.34 190.242Z" fill="#3F3D56"/>
<path opacity="0.1" d="M110.507 139.059C105.994 141.725 86.1823 140.64 79.737 140.206L77.9809 140.079C77.7922 140.079 78.0096 139.972 78.0096 139.972L78.1902 138.158L82.9946 125.97L108.718 111.08C108.197 112.648 108.025 115.048 108.066 117.796C108.185 126.626 110.507 139.059 110.507 139.059Z" fill="black"/>
<path d="M110.507 138.457C105.994 141.123 86.1823 140.038 79.737 139.604L77.9809 139.481L77.6896 139.456L78.0096 139.374L79.5932 138.965L82.9942 125.377L108.718 110.49C108.197 112.059 108.025 114.459 108.066 117.207C108.185 126.028 110.507 138.457 110.507 138.457Z" fill="#EFEFEF"/>
<path opacity="0.1" d="M108.05 117.198C102.819 118.402 91.3067 121.935 86.8838 130.467C83.934 136.147 81.4519 138.584 79.7204 139.603L77.9644 139.48C77.9759 139.445 77.9855 139.41 77.9931 139.374L79.5766 138.965L82.9777 125.376L108.701 110.49C108.186 112.05 108.008 114.45 108.05 117.198Z" fill="black"/>
<path opacity="0.1" d="M19.0177 121.474L25.0242 125.069C24.4209 125.221 23.6499 125.804 22.7925 126.646C22.2918 125.188 19.1509 123.153 17.7214 122.285C18.4965 121.764 19.0177 121.474 19.0177 121.474Z" fill="black"/>
<path opacity="0.1" d="M76.894 139.714C76.8281 139.748 76.7532 139.761 76.6797 139.751C76.6062 139.741 76.5377 139.708 76.4838 139.657C76.617 139.696 76.7552 139.715 76.894 139.714Z" fill="black"/>
<path d="M90.4864 79.3083C90.4864 79.3083 85.0791 79.9061 81.276 75.9093C81.276 75.9093 65.275 80.5082 59.856 90.8979C54.437 101.288 17.5982 121.674 17.5982 121.674C17.5982 121.674 24.0067 125.27 23.4034 127.068L47.6297 113.078C47.6297 113.078 56.2453 106.886 58.6373 105.486C61.0294 104.085 74.2562 95.4931 77.0584 118.873C79.8606 142.253 77.0584 139.456 77.0584 139.456C77.0584 139.456 81.0627 140.857 86.868 129.664C92.6732 118.472 110.688 115.875 110.688 115.875L111.689 104.089C111.689 104.089 115.263 96.2749 112.51 93.0316C111.676 92.0713 111.121 90.9014 110.906 89.6488C110.45 86.6552 110.906 81.6671 117.281 77.5227C127.09 71.1257 130.894 65.9331 130.894 65.9331C130.894 65.9331 131.094 62.1328 125.088 60.3347C119.082 58.5367 94.6588 48.7451 94.6588 48.7451L93.8381 52.1441L113.109 65.7201C113.109 65.7201 103.5 73.501 95.8774 73.3127C95.8771 73.3127 97.2925 79.1075 90.4864 79.3083Z" fill="#2D8EFF"/>
<path opacity="0.1" d="M94.1949 69.9998C93.7215 68.3979 93.3515 66.7674 93.0874 65.1182L82.4778 67.9161C82.9455 69.9378 82.8619 72.0477 82.2357 74.0263C84.4049 74.604 86.6966 74.5302 88.8239 73.814C90.9511 73.0977 92.8195 71.771 94.1949 69.9998Z" fill="black"/>
<path d="M85.3826 73.8129C91.684 73.8129 96.7923 68.7138 96.7923 62.4238C96.7923 56.1338 91.684 51.0347 85.3826 51.0347C79.0812 51.0347 73.9729 56.1338 73.9729 62.4238C73.9729 68.7138 79.0812 73.8129 85.3826 73.8129Z" fill="#FEB9B9"/>
<path opacity="0.1" d="M97.7931 154.146C97.7931 154.146 104.398 167.136 102.396 171.129L97.7931 154.146Z" fill="black"/>
<path d="M91.4501 36.1196C94.6172 36.4802 97.6247 37.8354 100.743 38.5767C101.522 38.8185 102.352 38.8496 103.147 38.6667C104.357 38.294 105.342 37.0287 106.597 37.0654C107.37 37.09 108.054 37.6144 108.69 38.1178C109.709 38.8969 110.669 39.7512 111.561 40.6733C113.711 43.0034 115.044 46.1406 117.005 48.6756C118.966 51.2106 121.763 54.1833 124.549 53.0208C122.654 60.3923 116.743 65.0037 110.027 65.4626C107.348 65.6462 104.603 65.09 102.01 65.872C101.365 66.1363 100.683 66.302 99.9873 66.3633C98.4939 66.3633 97.2918 64.9956 96.3604 63.6646C94.1776 60.5358 92.4506 56.9852 89.9931 54.1308C89.1725 53.1849 88.2249 52.2879 87.0761 52.1161C85.9274 51.9442 84.8731 52.4928 83.8516 53.0212C82.1655 53.8936 80.4425 54.7943 79.1337 56.2975C77.825 57.8007 77.0003 60.02 77.5417 62.031C77.8331 63.1204 78.4981 64.1033 78.5099 65.2416C78.5345 67.0599 76.9263 68.3868 76.6104 70.1559C76.539 70.899 76.513 71.6458 76.5324 72.392C76.393 74.8154 74.8035 76.7982 73.1482 78.326C72.5001 78.9157 71.7872 79.5546 71.5974 80.4677C71.4702 81.0941 71.5974 81.7529 71.5154 82.3885C71.2734 83.9611 69.702 84.7597 68.3112 84.9646C66.6862 85.2048 65.0264 85.0083 63.5028 84.3955C65.4475 83.4775 66.6456 80.8654 66.1942 78.5268C65.5748 75.2832 62.3091 72.9531 62.5894 69.6525C62.7429 68.6398 63.0472 67.6557 63.4921 66.7327C64.2037 64.9491 64.7209 63.0942 65.0348 61.2001C65.2809 59.738 65.4001 58.1859 64.9403 56.7895C64.5301 55.5198 63.6727 54.5086 62.9462 53.4353C61.9618 51.9753 61.1845 50.3862 60.6365 48.7134C60.438 48.2172 60.3623 47.6805 60.4159 47.1489C60.5804 46.521 60.9307 45.9572 61.4211 45.5311C63.2059 43.6585 65.1135 41.7143 67.5056 41.1778C68.6469 40.9887 69.8076 40.9446 70.96 41.0467C72.9642 41.1095 74.9703 41.0246 76.962 40.7927C78.6029 40.6003 81.3761 40.6249 82.7673 39.5641C84.0635 38.5727 84.7941 37.328 86.3897 36.6975C88.0058 36.0996 89.7428 35.9014 91.4523 36.12L91.4501 36.1196Z" fill="#2F2E41"/>
<path d="M303.454 273.767C312.595 273.767 320.005 272.517 320.005 270.974C320.005 269.431 312.595 268.18 303.454 268.18C294.313 268.18 286.903 269.431 286.903 270.974C286.903 272.517 294.313 273.767 303.454 273.767Z" fill="#2D8EFF"/>
<path d="M310.299 266.405C311.053 265.789 311.603 264.96 311.875 264.026C312.081 263.085 311.678 261.97 310.772 261.606C309.759 261.22 308.675 261.922 307.858 262.629C307.04 263.335 306.096 264.145 305.021 263.993C305.575 263.494 305.989 262.86 306.223 262.154C306.458 261.447 306.506 260.692 306.361 259.962C306.313 259.66 306.183 259.376 305.986 259.141C305.426 258.541 304.405 258.795 303.735 259.272C301.594 260.772 300.998 263.678 300.985 266.285C300.767 265.344 300.952 264.362 300.944 263.409C300.936 262.456 300.677 261.353 299.857 260.849C299.352 260.579 298.784 260.446 298.211 260.463C297.248 260.426 296.178 260.525 295.519 261.227C294.696 262.098 294.918 263.561 295.626 264.514C296.334 265.467 297.417 266.08 298.413 266.741C299.209 267.216 299.888 267.863 300.399 268.635C300.461 268.743 300.51 268.858 300.546 268.977H306.56C307.916 268.291 309.173 267.427 310.298 266.406L310.299 266.405Z" fill="#2D8EFF"/>
<path d="M78.4278 275C84.4603 275 89.3505 274.175 89.3505 273.156C89.3505 272.138 84.4603 271.312 78.4278 271.312C72.3954 271.312 67.5052 272.138 67.5052 273.156C67.5052 274.175 72.3954 275 78.4278 275Z" fill="#EFEFEF"/>
<path d="M82.9453 270.141C83.443 269.735 83.8057 269.188 83.9855 268.571C84.0647 268.262 84.0357 267.935 83.9033 267.645C83.7709 267.354 83.5431 267.118 83.2576 266.974C82.5892 266.719 81.8749 267.183 81.3345 267.649C80.7941 268.116 80.1718 268.65 79.4629 268.55C79.8278 268.22 80.1009 267.802 80.2556 267.336C80.4103 266.87 80.4414 266.371 80.3457 265.89C80.3139 265.69 80.2285 265.503 80.0986 265.347C79.7307 264.952 79.0554 265.12 78.6129 265.434C77.2004 266.425 76.8064 268.341 76.7983 270.063C76.6545 269.442 76.7766 268.794 76.7711 268.165C76.7656 267.536 76.5945 266.809 76.0538 266.476C75.7203 266.297 75.3455 266.209 74.9672 266.221C74.3316 266.197 73.6253 266.262 73.1905 266.725C72.6473 267.3 72.794 268.266 73.2612 268.895C73.7283 269.524 74.4427 269.928 75.1004 270.363C75.6261 270.676 76.0745 271.103 76.4124 271.612C76.4531 271.683 76.486 271.759 76.5103 271.837H80.4789C81.3738 271.384 82.2034 270.813 82.9453 270.139V270.141Z" fill="#EFEFEF"/>
<path d="M16.6558 275C22.6882 275 27.5784 274.175 27.5784 273.156C27.5784 272.138 22.6882 271.312 16.6558 271.312C10.6234 271.312 5.73315 272.138 5.73315 273.156C5.73315 274.175 10.6234 275 16.6558 275Z" fill="#EFEFEF"/>
<path d="M21.1732 270.141C21.671 269.735 22.0337 269.188 22.2135 268.571C22.2927 268.262 22.2637 267.935 22.1313 267.645C21.9989 267.354 21.7711 267.118 21.4855 266.974C20.8172 266.719 20.1028 267.183 19.5624 267.649C19.0221 268.116 18.3997 268.65 17.6909 268.55C18.0557 268.22 18.3288 267.802 18.4836 267.336C18.6383 266.87 18.6693 266.371 18.5737 265.89C18.5419 265.69 18.4565 265.503 18.3265 265.347C17.9587 264.952 17.2833 265.12 16.8408 265.434C15.4283 266.425 15.0343 268.341 15.0263 270.063C14.8824 269.442 15.0045 268.794 14.999 268.165C14.9935 267.536 14.8225 266.809 14.2818 266.476C13.9482 266.297 13.5735 266.209 13.1951 266.221C12.5595 266.197 11.8533 266.262 11.4185 266.725C10.8752 267.3 11.0219 268.266 11.4891 268.895C11.9563 269.524 12.6706 269.928 13.3283 270.363C13.854 270.676 14.3025 271.103 14.6404 271.612C14.6811 271.683 14.7139 271.759 14.7382 271.837H18.7069C19.6017 271.384 20.4313 270.813 21.1732 270.139V270.141Z" fill="#EFEFEF"/>
<path d="M315.794 18.5514C315.794 18.5514 281.136 16.464 285.219 40.7058C285.219 40.7058 284.396 44.9912 288.298 46.9347C288.298 46.9347 288.36 45.1392 291.854 45.7512C293.098 45.9571 294.362 46.0177 295.621 45.9319C297.318 45.8204 298.933 45.1614 300.222 44.0541C300.222 44.0541 309.965 40.0357 313.752 24.1432C313.752 24.1432 316.555 20.6755 316.444 19.7837L310.595 22.2775C310.595 22.2775 312.596 26.4891 311.007 29.9883C311.007 29.9883 310.818 22.4281 309.694 22.5926C309.468 22.6256 306.656 24.051 306.656 24.051C306.656 24.051 310.093 31.385 307.5 36.7187C307.5 36.7187 308.484 27.6795 305.582 24.5812L301.466 26.9807C301.466 26.9807 305.483 34.5574 302.758 40.7411C302.758 40.7411 303.457 31.258 300.597 27.5642L296.868 30.4689C296.868 30.4689 300.642 37.9344 298.342 43.0631C298.342 43.0631 298.041 32.0268 296.061 31.193C296.061 31.193 292.797 34.0691 292.299 35.2441C292.299 35.2441 294.883 40.6677 293.278 43.5272C293.278 43.5272 292.295 36.1727 291.488 36.1315C291.488 36.1315 288.236 41.0044 287.898 44.349C287.898 44.349 288.038 39.3814 290.701 35.6715C290.701 35.6715 287.556 36.2097 285.721 38.2417C285.721 38.2417 286.227 34.7987 291.504 34.4947C291.504 34.4947 294.192 30.7968 294.908 30.575C294.908 30.575 289.664 30.1344 286.482 31.5447C286.482 31.5447 289.281 28.2948 295.871 29.7738L299.555 26.7703C299.555 26.7703 292.648 25.8292 289.718 26.8691C289.718 26.8691 293.089 23.993 300.547 26.0885L304.557 23.697C304.557 23.697 298.666 22.4314 295.159 22.8753C295.159 22.8753 298.864 20.8826 305.734 23.0438L308.615 21.7587C308.615 21.7587 304.301 20.9124 303.037 20.7769C301.774 20.6414 301.708 20.2962 301.708 20.2962C304.441 19.8414 307.247 20.153 309.813 21.1962C309.813 21.1962 315.897 18.9336 315.794 18.5514Z" fill="#2D8EFF"/>
<path d="M268.307 5.71701C268.307 5.71701 252.666 4.77593 254.493 15.73C254.493 15.73 254.125 17.6654 255.884 18.5444C255.884 18.5444 255.913 17.7226 257.494 18.0061C258.055 18.1004 258.626 18.128 259.193 18.0883C259.961 18.0376 260.691 17.7374 261.272 17.2336C261.272 17.2336 265.676 15.4175 267.389 8.23549C267.389 8.23549 268.652 6.67021 268.602 6.26741L265.96 7.39318C265.96 7.39318 266.861 9.29553 266.153 10.8773C266.153 10.8773 266.067 7.46258 265.561 7.54115C265.458 7.54115 264.186 8.20207 264.186 8.20207C264.186 8.20207 265.742 11.5177 264.569 13.9256C264.569 13.9256 265.013 9.84153 263.7 8.44037L261.84 9.54191C261.84 9.54191 263.655 12.9644 262.424 15.7586C262.424 15.7586 262.741 11.4733 261.449 9.80517L259.765 11.12C259.765 11.12 261.469 14.4933 260.432 16.8113C260.432 16.8113 260.292 11.8232 259.399 11.4454C259.399 11.4454 257.925 12.7437 257.699 13.2779C257.699 13.2779 258.868 15.7432 258.143 17.021C258.143 17.021 257.699 13.6969 257.32 13.6796C257.32 13.6796 255.851 15.8827 255.698 17.3775C255.772 15.983 256.209 14.6319 256.966 13.4579C256.118 13.6182 255.336 14.0224 254.715 14.6207C254.715 14.6207 254.945 13.0635 257.329 12.928C257.329 12.928 258.563 11.2559 258.868 11.1531C258.868 11.1531 256.497 10.9559 255.06 11.5937C255.06 11.5937 256.324 10.1268 259.3 10.7925L260.947 9.43653C260.947 9.43653 257.824 9.02161 256.499 9.47912C256.499 9.47912 258.022 8.18077 261.394 9.12589L263.205 8.04529C263.205 8.04529 260.542 7.47433 258.957 7.67811C258.957 7.67811 260.632 6.77816 263.736 7.75154L265.033 7.17214C265.033 7.17214 263.083 6.7899 262.509 6.72822C261.935 6.66653 261.908 6.51048 261.908 6.51048C263.144 6.30529 264.412 6.44757 265.571 6.92135C265.571 6.92135 268.355 5.88812 268.307 5.71701Z" fill="#3F3D56"/>
<path d="M27.0995 172.944C27.0995 172.944 11.4582 172.003 13.2856 182.957C13.2856 182.957 12.9178 184.892 14.6768 185.771C14.6768 185.771 14.7055 184.95 16.2861 185.233C16.8474 185.327 17.418 185.355 17.9859 185.315C18.7537 185.265 19.4837 184.964 20.0645 184.461C20.0645 184.461 24.4687 182.645 26.181 175.463C26.181 175.463 27.4445 173.897 27.3949 173.494L24.7523 174.62C24.7523 174.62 25.6539 176.523 24.9458 178.104C24.9458 178.104 24.8593 174.69 24.3532 174.768C24.2502 174.768 22.9782 175.429 22.9782 175.429C22.9782 175.429 24.5342 178.745 23.3611 181.153C23.3611 181.153 23.8055 177.069 22.4927 175.667L20.6321 176.769C20.6321 176.769 22.4474 180.191 21.2166 182.986C21.2166 182.986 21.5337 178.7 20.2411 177.032L18.5575 178.347C18.5575 178.347 20.2617 181.72 19.2244 184.038C19.2244 184.038 19.0846 179.05 18.1911 178.672C18.1911 178.672 16.7176 179.971 16.491 180.505C16.491 180.505 17.66 182.97 16.9357 184.248C16.9357 184.248 16.491 180.924 16.1125 180.907C16.1125 180.907 14.643 183.11 14.4907 184.605C14.5643 183.21 15.0013 181.859 15.7586 180.685C14.9106 180.845 14.128 181.249 13.5071 181.848C13.5071 181.848 13.7377 180.291 16.1209 180.155C16.1209 180.155 17.3558 178.483 17.6604 178.38C17.6604 178.38 15.2896 178.183 13.8528 178.821C13.8528 178.821 15.1164 177.354 18.0926 178.02L19.739 176.664C19.739 176.664 16.616 176.249 15.2918 176.706C15.2918 176.706 16.8147 175.408 20.1859 176.353L21.9972 175.272C21.9972 175.272 19.334 174.701 17.7494 174.905C17.7494 174.905 19.4245 174.005 22.5283 174.979L23.825 174.399C23.825 174.399 21.8754 174.017 21.3016 173.955C20.7278 173.894 20.7005 173.738 20.7005 173.738C21.9362 173.532 23.2047 173.675 24.3639 174.148C24.3639 174.148 27.1477 173.115 27.0995 172.944Z" fill="#3F3D56"/>
</g>
<defs>
<linearGradient id="paint0_linear" x1="77.0091" y1="141.07" x2="77.0091" y2="140.963" gradientUnits="userSpaceOnUse">
<stop stop-color="#808080" stop-opacity="0.251"/>
<stop offset="0.54" stop-color="#808080" stop-opacity="0.122"/>
<stop offset="1" stop-color="#808080" stop-opacity="0.102"/>
</linearGradient>
<clipPath id="clip0">
<rect width="332" height="275" fill="white"/>
</clipPath>
</defs>
</svg>
