<svg width="82" height="82" viewBox="0 0 82 82" fill="none" xmlns="http://www.w3.org/2000/svg">
<path d="M39.9978 10.9333C38.9804 11.3206 38.4868 11.8293 37.6061 13.3706C36.9835 14.4791 36.1104 15.9976 35.0626 17.8046C34.7513 18.3437 34.0907 19.4902 33.5972 20.3481C33.1037 21.2061 32.39 22.4361 32.018 23.0815C31.6459 23.7269 31.0233 24.805 30.6361 25.4731C30.2565 26.1413 29.6794 27.1283 29.3681 27.675C28.7455 28.7532 26.7942 32.1319 25.9287 33.6352C25.625 34.1591 24.9189 35.3891 24.357 36.3685C23.7876 37.348 23.1346 38.4944 22.8917 38.912C22.0489 40.3698 20.1659 43.627 19.6041 44.6065C19.2928 45.1456 18.7157 46.1402 18.3361 46.8083C17.9489 47.4765 17.3035 48.6002 16.8935 49.3139C16.4835 50.02 16.0659 50.7565 15.9596 50.9463C15.58 51.622 15.5041 51.7587 15.0333 52.5787C14.7752 53.0343 14.4715 53.5278 14.3728 53.6644C14.1222 53.9985 13.7426 54.7502 13.7426 54.9096C13.7426 54.978 13.7046 55.0615 13.6667 55.0843C13.568 55.145 13.568 56.618 13.6667 56.6787C13.7122 56.7015 13.7426 56.7774 13.7426 56.8457C13.7426 57.1494 14.1678 57.8024 14.6613 58.2732C14.9498 58.5465 15.2307 58.7667 15.2839 58.7667C15.3294 58.7667 15.4661 58.8122 15.5724 58.873C15.6863 58.9261 15.9444 59.0324 16.1494 59.1007C16.4835 59.2146 18.6018 59.2222 41.1898 59.207L65.8657 59.1843L66.3668 58.9413C67.202 58.5237 68.1739 57.4076 68.1815 56.8533C68.1815 56.785 68.2194 56.7015 68.2574 56.6787C68.303 56.6559 68.3333 56.3143 68.3333 55.9194C68.3333 55.312 68.303 55.1374 68.1131 54.6743C67.9917 54.3782 67.8094 54.0213 67.7107 53.8846C67.612 53.7556 67.445 53.505 67.3539 53.338C67.1261 52.9583 65.1292 49.4885 63.588 46.8083C63.2083 46.1402 62.6313 45.1456 62.32 44.6065C61.7581 43.627 59.8752 40.3698 59.0324 38.912C58.7894 38.4944 58.1365 37.348 57.567 36.3685C57.0052 35.3891 56.2991 34.1591 55.9954 33.6352C55.1298 32.1319 53.1785 28.7532 52.5559 27.675C52.2446 27.1283 51.6676 26.1413 51.288 25.4731C50.4907 24.0837 49.5568 22.4741 48.4787 20.6139C48.0687 19.9002 47.4081 18.7613 47.0133 18.0704C46.6185 17.3794 45.9883 16.2861 45.6163 15.6407C45.2367 14.9954 44.6596 13.9704 44.318 13.3706C43.4296 11.8065 42.9361 11.3054 41.8959 10.9257C41.3796 10.7359 40.4989 10.7435 39.9978 10.9333ZM42.025 19.847C43.9383 23.1498 44.485 24.0989 45.2518 25.4352C45.6998 26.2096 46.3224 27.2802 46.6337 27.8269C46.945 28.3659 47.6663 29.6187 48.2357 30.5981C48.7976 31.5776 49.5113 32.8076 49.8074 33.3315C50.3237 34.2198 50.6274 34.7437 52.4876 37.9857C54.5983 41.6454 55.927 43.9535 57.0583 45.8972C57.4683 46.6033 58.053 47.6132 58.3491 48.137C58.6528 48.6609 59.2298 49.6632 59.6322 50.3769C60.0422 51.083 60.4067 51.698 60.4446 51.7435C60.6496 51.9561 60.3383 51.9713 59.7157 51.7815C59.5942 51.7435 58.8426 51.5537 58.0454 51.3639C57.2557 51.1741 56.5041 50.9919 56.375 50.9539C56.2535 50.9159 55.8891 50.8248 55.5778 50.7565C55.2665 50.6882 54.9248 50.597 54.8185 50.5667C54.7122 50.5287 54.5072 50.4756 54.363 50.4528C54.2187 50.4224 53.9985 50.3693 53.8694 50.3389C53.748 50.3009 53.4215 50.2174 53.1481 50.1491C52.8748 50.0883 52.5331 49.9972 52.3889 49.9593C52.2446 49.9213 50.9311 49.5948 49.4657 49.238C48.0079 48.8811 46.6868 48.5546 46.5426 48.5167C46.3983 48.4711 45.9883 48.3648 45.6315 48.2813C45.2746 48.1978 44.7963 48.0763 44.5685 48.0232C44.3407 47.9624 43.9307 47.8637 43.6574 47.803C43.3841 47.7346 42.8222 47.598 42.4046 47.4917C41.4555 47.2487 40.6583 47.1804 40.2255 47.2867C40.0433 47.3322 38.912 47.6132 37.6972 47.9093C36.49 48.2054 35.3739 48.4787 35.2296 48.5167C35.0854 48.5622 34.8272 48.623 34.6602 48.6609C34.4931 48.7065 33.9996 48.828 33.5592 48.9343C33.1189 49.0406 32.6254 49.162 32.4583 49.2076C32.2913 49.2456 32.0331 49.3063 31.8889 49.3519C31.7446 49.3898 30.2944 49.7467 28.662 50.1491C27.0372 50.5439 25.6022 50.9007 25.4731 50.9387C25.3517 50.9767 25.1239 51.0298 24.9796 51.0602C24.8354 51.0906 24.6152 51.1437 24.4861 51.1817C24.2963 51.2348 23.2333 51.5082 21.7604 51.865C21.6009 51.903 21.4567 51.9257 21.4415 51.9182C21.4187 51.8878 22.5196 49.9517 24.8657 45.8972C26.2172 43.5739 26.9309 42.3211 29.0948 38.5704C30.5298 36.08 31.5776 34.2654 32.1167 33.3315C32.4128 32.8076 33.1265 31.5776 33.6883 30.5981C34.2578 29.6187 34.9791 28.3659 35.2904 27.8269C35.6017 27.2802 36.2242 26.2096 36.6722 25.4352C37.1126 24.6607 37.887 23.332 38.3805 22.4741C38.8741 21.6161 39.5346 20.4696 39.8459 19.9306C40.1496 19.3839 40.5292 18.7385 40.6811 18.4956L40.9544 18.0476L41.0683 18.2222C41.1367 18.3133 41.5694 19.0498 42.025 19.847ZM41.2961 52.6167C41.5467 52.685 46.7552 53.9909 47.3778 54.1428C47.8333 54.2491 49.1317 54.568 49.8074 54.7426C50.597 54.94 51.0981 55.0615 51.4398 55.1298C51.6524 55.1678 51.8878 55.2361 51.9713 55.2741C52.0548 55.312 52.1915 55.3576 52.275 55.3728C52.3585 55.3956 47.2487 55.4107 40.9241 55.4107C33.0961 55.4107 29.4972 55.388 29.6491 55.3348C29.7781 55.2969 30.0818 55.2133 30.3324 55.1602C30.7652 55.0615 31.4561 54.8944 32.0407 54.7426C32.185 54.7046 32.5191 54.6211 32.7848 54.5604C33.043 54.492 33.4681 54.3857 33.7339 54.3174C33.992 54.2567 34.3261 54.1732 34.4704 54.1352C34.6146 54.0972 34.9411 54.0137 35.1917 53.9454C35.4422 53.877 35.837 53.7783 36.0648 53.7176C36.2926 53.6569 37.4087 53.3683 38.5324 53.0798C40.6963 52.5256 40.8633 52.4952 41.2961 52.6167Z" fill="#3F3D56"/>
<path d="M40.1648 35.8142C39.7548 35.8902 38.8589 36.3761 38.4868 36.7254C37.31 37.8187 36.9152 39.3144 37.4239 40.757C37.6896 41.5087 38.1148 42.1009 38.6994 42.5413C39.117 42.8678 39.1018 42.845 40.5065 45.2139C40.795 45.7074 40.8406 45.7454 41.0759 45.7454C41.3644 45.7454 41.3568 45.753 42.5944 43.6346C42.9057 43.0955 43.1867 42.7159 43.4068 42.5337C43.8852 42.1313 44.3711 41.448 44.5685 40.9013C44.6596 40.6431 44.7659 40.3698 44.8039 40.3015C44.895 40.1192 44.895 38.8968 44.7963 38.8361C44.7583 38.8133 44.7204 38.7146 44.7204 38.6311C44.7204 38.3729 44.2193 37.4163 43.8852 37.0367C43.4676 36.5583 42.7615 36.0952 42.1617 35.9129C41.6909 35.7687 40.6963 35.7155 40.1648 35.8142ZM41.82 37.4998C42.1768 37.682 42.3211 37.8415 42.5109 38.2667C42.7918 38.8741 42.6704 39.4891 42.1768 39.975C41.6909 40.4685 41.0759 40.59 40.4685 40.3091C40.0433 40.1192 39.8839 39.975 39.7093 39.6333C39.4815 39.1929 39.4511 38.8513 39.5954 38.4185C39.9143 37.4694 40.9317 37.0442 41.82 37.4998Z" fill="#3F3D56"/>
<path d="M47.6283 60.7712C46.8083 61.2267 46.6717 62.1682 47.3398 62.7908C47.4537 62.8971 47.6587 63.178 47.8105 63.4134C47.9548 63.6564 48.0991 63.8538 48.137 63.8538C48.175 63.8538 48.3117 63.6564 48.4483 63.421C48.585 63.178 48.8204 62.8515 48.9646 62.6921C49.1772 62.4567 49.2304 62.3277 49.2607 62.0012C49.2987 61.4925 49.1468 61.1584 48.752 60.8699C48.4256 60.6421 47.9396 60.6041 47.6283 60.7712ZM48.4559 61.3254C48.623 61.4773 48.6381 61.9025 48.4711 62.0315C48.2813 62.191 47.9017 62.153 47.7422 61.9632C47.5676 61.7354 47.5676 61.5684 47.7574 61.3634C47.9472 61.166 48.2585 61.1432 48.4559 61.3254Z" fill="#3F3D56"/>
<path d="M14.9726 62.5781C14.9118 62.6388 14.8815 62.9349 14.8815 63.4133V64.1573H14.4335C14.1146 64.1573 13.9628 64.1953 13.8868 64.2864C13.773 64.4231 13.735 65.3949 13.8413 65.5012C13.8792 65.5316 14.1146 65.5772 14.3728 65.5999L14.8435 65.6379L14.8815 67.6879C14.927 69.8442 14.965 70.0796 15.3218 70.482C15.7622 70.9755 16.6278 71.2033 17.5844 71.0666C18.4424 70.9527 18.5259 70.8692 18.5259 70.0796C18.5259 69.4722 18.488 69.4418 17.9489 69.5557C17.3642 69.6772 17.0909 69.5936 16.9087 69.2368C16.7948 69.009 16.7796 68.7812 16.7948 67.3083L16.8176 65.6379L17.5768 65.6151C18.4728 65.5923 18.5259 65.5544 18.5259 64.8938C18.5259 64.1725 18.5031 64.1573 17.5768 64.1573H16.7796V63.3981C16.7796 62.7299 16.7644 62.6388 16.6354 62.5629C16.4228 62.4566 15.0865 62.4642 14.9726 62.5781Z" fill="#3F3D56"/>
<path d="M51.417 62.5782C51.3563 62.6389 51.3259 62.9351 51.3259 63.4134V64.1575H50.878C50.5591 64.1575 50.4072 64.1954 50.3313 64.2865C50.1946 64.446 50.2022 65.3191 50.3313 65.4786C50.392 65.5469 50.5894 65.6001 50.8552 65.6152L51.288 65.638L51.3335 67.688C51.3563 68.8117 51.4019 69.8064 51.4398 69.8899C51.6069 70.2771 51.8802 70.6264 52.1535 70.801C52.8596 71.2414 54.5604 71.1958 54.9096 70.7251C54.9931 70.6112 54.9856 69.5634 54.8944 69.5102C54.8565 69.4875 54.6211 69.5102 54.3781 69.5558C54.0213 69.6317 53.877 69.6317 53.7024 69.5558C53.2924 69.3888 53.262 69.2369 53.262 67.3539V65.638L54.0213 65.6152C54.9172 65.5925 54.9704 65.5545 54.9704 64.8939C54.9704 64.1726 54.9476 64.1575 54.0213 64.1575H53.2241V63.4134C53.2241 62.9351 53.1937 62.6389 53.133 62.5782C53.0722 62.5175 52.7685 62.4871 52.275 62.4871C51.7815 62.4871 51.4778 62.5175 51.417 62.5782Z" fill="#3F3D56"/>
<path d="M22.717 64.0891C22.588 64.127 22.2615 64.3624 22.0109 64.6129C21.7528 64.8635 21.5326 65.0685 21.5174 65.0685C21.5022 65.0685 21.487 64.8863 21.487 64.6585C21.487 64.2941 21.4643 64.2333 21.32 64.1878C21.0998 64.1194 20.2798 64.1194 20.0596 64.1878L19.8926 64.2409V67.5285C19.8926 69.9809 19.9154 70.8313 19.9837 70.8996C20.1052 71.0211 21.5781 71.0211 21.6996 70.8996C21.768 70.8313 21.7907 70.2618 21.7907 68.7965V66.792L22.0868 66.3972C22.2539 66.177 22.5272 65.9341 22.7246 65.8278C23.0587 65.6531 23.0967 65.6455 23.5446 65.7442C23.8863 65.8126 24.0381 65.8126 24.0989 65.7518C24.1444 65.7063 24.1976 65.3874 24.2052 65.0457C24.2431 64.2029 24.1444 64.0815 23.4611 64.0359C23.1878 64.0207 22.8537 64.0435 22.717 64.0891Z" fill="#3F3D56"/>
<path d="M26.8702 64.0815C26.3159 64.1726 25.4428 64.499 25.2302 64.704C25.0935 64.8331 25.0555 64.947 25.0555 65.2735C25.0555 66.0176 25.2226 66.1163 25.9211 65.7974C26.5589 65.5013 27.098 65.3722 27.6446 65.3722C28.2748 65.3722 28.6544 65.5316 28.7987 65.8581C28.9278 66.139 29.0265 66.792 28.943 66.8452C28.9126 66.8603 28.4798 66.8983 27.9787 66.9287C26.5209 67.0122 25.7237 67.2476 25.215 67.7411C24.7974 68.1435 24.7139 68.3789 24.7139 69.0926C24.7139 70.072 25.01 70.5124 25.9363 70.93C26.2324 71.059 26.4526 71.097 27.0296 71.097C27.8724 71.1046 28.2444 71.0059 28.7759 70.649C28.9961 70.5048 29.1859 70.3833 29.2011 70.3833C29.2163 70.3833 29.2315 70.482 29.2315 70.5959C29.2315 70.7098 29.2694 70.8465 29.3226 70.8996C29.4592 71.0363 30.6285 71.0211 30.7424 70.8844C30.8107 70.8085 30.8259 70.0872 30.8107 68.2042L30.788 65.6379L30.5905 65.2128C30.2109 64.4155 29.5276 64.0815 28.1685 64.0435C27.6902 64.0283 27.1055 64.0435 26.8702 64.0815ZM28.9885 68.5687L29.0113 69.0698L28.6924 69.3507C28.5178 69.5102 28.2672 69.6848 28.123 69.7455C27.5991 69.9657 26.8398 69.829 26.65 69.4798C26.612 69.3963 26.5741 69.1913 26.5741 69.0166C26.5741 68.6218 26.6728 68.4396 26.9613 68.2878C27.303 68.1131 27.7509 68.0448 28.3963 68.0524L28.9657 68.0676L28.9885 68.5687Z" fill="#3F3D56"/>
<path d="M35.8067 64.1649C35.3587 64.3168 34.8196 64.6433 34.6298 64.8711C34.4324 65.1064 34.3185 65.0153 34.3185 64.6205C34.3185 64.294 34.2957 64.2333 34.1515 64.1877C33.9313 64.1194 33.1113 64.1194 32.8911 64.1877L32.7241 64.2409V67.5285C32.7241 69.9809 32.7468 70.8312 32.8152 70.8996C32.9367 71.021 34.4096 71.021 34.5311 70.8996C34.5994 70.8312 34.6222 70.2314 34.6222 68.6522V66.5035L35.0094 66.1314C35.503 65.6531 36.0041 65.4709 36.4217 65.5999C36.7937 65.7214 36.9683 65.8733 37.1126 66.2073C37.2113 66.4199 37.2417 66.8907 37.2644 68.637C37.2796 69.9581 37.3252 70.8388 37.3707 70.892C37.4694 71.0134 38.8133 71.0286 39.0335 70.9147C39.1702 70.8388 39.1778 70.7325 39.1778 68.5762C39.1702 66.0783 39.117 65.6075 38.745 65.0077C38.2135 64.1346 36.9455 63.7701 35.8067 64.1649Z" fill="#3F3D56"/>
<path d="M42.3667 64.1043C41.577 64.2941 40.9772 64.7345 40.7418 65.3115C40.5824 65.6911 40.5824 66.5263 40.7494 66.868C41.0152 67.4374 41.4935 67.7563 42.8146 68.265C43.5815 68.5535 43.8093 68.7509 43.8093 69.1306C43.8093 69.457 43.6194 69.662 43.2246 69.7683C42.6628 69.9278 42.1085 69.8367 41.2733 69.4495C40.7722 69.2217 40.7494 69.2217 40.6507 69.3583C40.5217 69.533 40.5141 70.2011 40.6431 70.4593C40.7646 70.7022 41.205 70.9224 41.8352 71.0439C43.2018 71.3096 44.6596 70.968 45.2518 70.2391C45.7302 69.662 45.8365 68.8269 45.5176 68.1435C45.2443 67.5741 44.7659 67.24 43.7257 66.8832C42.6172 66.5111 42.2376 66.1543 42.4578 65.7063C42.6172 65.3722 42.8526 65.2811 43.5435 65.3191C43.9763 65.3419 44.2952 65.4102 44.6293 65.5545C45.2443 65.8126 45.3278 65.7595 45.3278 65.1293C45.3278 64.8787 45.2974 64.613 45.2518 64.5371C45.0393 64.1422 43.3005 63.8841 42.3667 64.1043Z" fill="#3F3D56"/>
<path d="M57.9543 64.0816C57.4076 64.1803 56.5648 64.5144 56.3598 64.7042C56.2231 64.8333 56.1852 64.9472 56.1852 65.2737C56.1852 66.0177 56.3522 66.1164 57.0507 65.7975C57.7037 65.5014 58.2276 65.3724 58.8046 65.3724C59.6778 65.3724 60.0574 65.7064 60.0574 66.4885V66.8909H59.8144C58.0833 66.9061 56.8913 67.1946 56.3522 67.7337C56.003 68.0753 55.8739 68.3638 55.8283 68.865C55.7676 69.5331 55.9194 70.0418 56.2915 70.4214C56.7091 70.8314 57.0128 70.9833 57.6885 71.082C58.5693 71.2187 59.3893 71.0364 60.0346 70.5657C60.3383 70.3379 60.3611 70.3379 60.3611 70.5961C60.3611 70.71 60.3991 70.8466 60.4522 70.8998C60.5889 71.0364 61.7581 71.0212 61.872 70.8846C61.9404 70.8011 61.9556 70.1025 61.9404 68.2044L61.9176 65.6381L61.7202 65.2129C61.3406 64.4005 60.6572 64.0816 59.2602 64.0361C58.7591 64.0285 58.1744 64.0437 57.9543 64.0816ZM60.0726 68.584C60.0726 69.0472 60.0498 69.1307 59.86 69.3281C59.2678 69.9507 58.0833 70.0342 57.7796 69.48C57.6809 69.2901 57.6809 68.7435 57.7796 68.5537C57.9543 68.2272 58.6224 68.0374 59.5183 68.0525L60.0726 68.0677V68.584Z" fill="#3F3D56"/>
<path d="M66.5339 64.1954C66.3137 64.3092 66.0024 64.5522 65.8353 64.7344C65.6759 64.9166 65.5241 65.0685 65.4937 65.0685C65.4709 65.0685 65.4481 64.8863 65.4481 64.6585C65.4481 64.2941 65.4253 64.2333 65.2811 64.1878C65.0609 64.1194 64.2409 64.1194 64.0207 64.1878L63.8537 64.2409V67.5285C63.8537 69.9809 63.8765 70.8313 63.9448 70.8996C64.0663 71.0211 65.5392 71.0211 65.6607 70.8996C65.7291 70.8313 65.7518 70.2618 65.7518 68.7965V66.792L66.0555 66.3972C66.2226 66.177 66.5111 65.9189 66.7009 65.8202C67.0122 65.6531 67.0578 65.6455 67.5057 65.7442C67.8474 65.8126 67.9992 65.8126 68.06 65.7518C68.1055 65.7063 68.1587 65.3874 68.1663 65.0457C68.2042 64.2105 68.1055 64.0815 67.4222 64.0283C66.997 63.9979 66.8755 64.0207 66.5339 64.1954Z" fill="#3F3D56"/>
<path d="M47.6056 64.1346C47.4613 64.1574 47.2943 64.2029 47.2487 64.2485C47.112 64.3624 47.1045 70.7629 47.2411 70.8996C47.355 71.0135 48.6913 71.0211 48.9039 70.9148C49.0406 70.8389 49.0481 70.7174 49.0481 67.574C49.0481 64.5142 49.0406 64.3092 48.9115 64.2409C48.7444 64.1498 47.9624 64.089 47.6056 64.1346Z" fill="#3F3D56"/>
</svg>
